<svg id="my-svg" width="100%" xmlns="http://www.w3.org/2000/svg" xmlns:xlink="http://www.w3.org/1999/xlink" class="flowchart" style="max-width: 4231.64px; background-color: transparent;" viewBox="0 0 4231.640625 804.828125" role="graphics-document document" aria-roledescription="flowchart-v2"><style>#my-svg{font-family:"trebuchet ms",verdana,arial,sans-serif;font-size:16px;fill:#ccc;}@keyframes edge-animation-frame{from{stroke-dashoffset:0;}}@keyframes dash{to{stroke-dashoffset:0;}}#my-svg .edge-animation-slow{stroke-dasharray:9,5!important;stroke-dashoffset:900;animation:dash 50s linear infinite;stroke-linecap:round;}#my-svg .edge-animation-fast{stroke-dasharray:9,5!important;stroke-dashoffset:900;animation:dash 20s linear infinite;stroke-linecap:round;}#my-svg .error-icon{fill:#a44141;}#my-svg .error-text{fill:#ddd;stroke:#ddd;}#my-svg .edge-thickness-normal{stroke-width:1px;}#my-svg .edge-thickness-thick{stroke-width:3.5px;}#my-svg .edge-pattern-solid{stroke-dasharray:0;}#my-svg .edge-thickness-invisible{stroke-width:0;fill:none;}#my-svg .edge-pattern-dashed{stroke-dasharray:3;}#my-svg .edge-pattern-dotted{stroke-dasharray:2;}#my-svg .marker{fill:lightgrey;stroke:lightgrey;}#my-svg .marker.cross{stroke:lightgrey;}#my-svg svg{font-family:"trebuchet ms",verdana,arial,sans-serif;font-size:16px;}#my-svg p{margin:0;}#my-svg .label{font-family:"trebuchet ms",verdana,arial,sans-serif;color:#ccc;}#my-svg .cluster-label text{fill:#F9FFFE;}#my-svg .cluster-label span{color:#F9FFFE;}#my-svg .cluster-label span p{background-color:transparent;}#my-svg .label text,#my-svg span{fill:#ccc;color:#ccc;}#my-svg .node rect,#my-svg .node circle,#my-svg .node ellipse,#my-svg .node polygon,#my-svg .node path{fill:#1f2020;stroke:#ccc;stroke-width:1px;}#my-svg .rough-node .label text,#my-svg .node .label text,#my-svg .image-shape .label,#my-svg .icon-shape .label{text-anchor:middle;}#my-svg .node .katex path{fill:#000;stroke:#000;stroke-width:1px;}#my-svg .rough-node .label,#my-svg .node .label,#my-svg .image-shape .label,#my-svg .icon-shape .label{text-align:center;}#my-svg .node.clickable{cursor:pointer;}#my-svg .root .anchor path{fill:lightgrey!important;stroke-width:0;stroke:lightgrey;}#my-svg .arrowheadPath{fill:lightgrey;}#my-svg .edgePath .path{stroke:lightgrey;stroke-width:1px;}#my-svg .flowchart-link{stroke:lightgrey;fill:none;}#my-svg .edgeLabel{background-color:hsl(0, 0%, 34.4117647059%);text-align:center;}#my-svg .edgeLabel p{background-color:hsl(0, 0%, 34.4117647059%);}#my-svg .edgeLabel rect{opacity:0.5;background-color:hsl(0, 0%, 34.4117647059%);fill:hsl(0, 0%, 34.4117647059%);}#my-svg .labelBkg{background-color:rgba(87.75, 87.75, 87.75, 0.5);}#my-svg .cluster rect{fill:hsl(180, 1.5873015873%, 28.3529411765%);stroke:rgba(255, 255, 255, 0.25);stroke-width:1px;}#my-svg .cluster text{fill:#F9FFFE;}#my-svg .cluster span{color:#F9FFFE;}#my-svg div.mermaidTooltip{position:absolute;text-align:center;max-width:200px;padding:2px;font-family:"trebuchet ms",verdana,arial,sans-serif;font-size:12px;background:hsl(20, 1.5873015873%, 12.3529411765%);border:1px solid rgba(255, 255, 255, 0.25);border-radius:2px;pointer-events:none;z-index:100;}#my-svg .flowchartTitleText{text-anchor:middle;font-size:18px;fill:#ccc;}#my-svg rect.text{fill:none;stroke-width:0;}#my-svg .icon-shape,#my-svg .image-shape{background-color:hsl(0, 0%, 34.4117647059%);text-align:center;}#my-svg .icon-shape p,#my-svg .image-shape p{background-color:hsl(0, 0%, 34.4117647059%);padding:2px;}#my-svg .icon-shape .label rect,#my-svg .image-shape .label rect{opacity:0.5;background-color:hsl(0, 0%, 34.4117647059%);fill:hsl(0, 0%, 34.4117647059%);}#my-svg .label-icon{display:inline-block;height:1em;overflow:visible;vertical-align:-0.125em;}#my-svg .node .label-icon path{fill:currentColor;stroke:revert;stroke-width:revert;}#my-svg .node .neo-node{stroke:#ccc;}#my-svg [data-look="neo"].node rect,#my-svg [data-look="neo"].cluster rect,#my-svg [data-look="neo"].node polygon{stroke:url(#my-svg-gradient);filter:drop-shadow( 1px 2px 2px rgba(185,185,185,1));}#my-svg [data-look="neo"].node path{stroke:url(#my-svg-gradient);stroke-width:1px;}#my-svg [data-look="neo"].node .outer-path{filter:drop-shadow( 1px 2px 2px rgba(185,185,185,1));}#my-svg [data-look="neo"].node .neo-line path{stroke:#ccc;filter:none;}#my-svg [data-look="neo"].node circle{stroke:url(#my-svg-gradient);filter:drop-shadow( 1px 2px 2px rgba(185,185,185,1));}#my-svg [data-look="neo"].node circle .state-start{fill:#000000;}#my-svg [data-look="neo"].icon-shape .icon{fill:url(#my-svg-gradient);filter:drop-shadow( 1px 2px 2px rgba(185,185,185,1));}#my-svg [data-look="neo"].icon-shape .icon-neo path{stroke:url(#my-svg-gradient);filter:drop-shadow( 1px 2px 2px rgba(185,185,185,1));}#my-svg :root{--mermaid-font-family:"trebuchet ms",verdana,arial,sans-serif;}</style><g><marker id="my-svg_flowchart-v2-pointEnd" class="marker flowchart-v2" viewBox="0 0 10 10" refX="5" refY="5" markerUnits="userSpaceOnUse" markerWidth="8" markerHeight="8" orient="auto"><path d="M 0 0 L 10 5 L 0 10 z" class="arrowMarkerPath" style="stroke-width: 1; stroke-dasharray: 1, 0;"/></marker><marker id="my-svg_flowchart-v2-pointStart" class="marker flowchart-v2" viewBox="0 0 10 10" refX="4.5" refY="5" markerUnits="userSpaceOnUse" markerWidth="8" markerHeight="8" orient="auto"><path d="M 0 5 L 10 10 L 10 0 z" class="arrowMarkerPath" style="stroke-width: 1; stroke-dasharray: 1, 0;"/></marker><marker id="my-svg_flowchart-v2-pointEnd-margin" class="marker flowchart-v2" viewBox="0 0 11.5 14" refX="11.5" refY="7" markerUnits="userSpaceOnUse" markerWidth="10.5" markerHeight="14" orient="auto"><path d="M 0 0 L 11.5 7 L 0 14 z" class="arrowMarkerPath" style="stroke-width: 0; stroke-dasharray: 1, 0;"/></marker><marker id="my-svg_flowchart-v2-pointStart-margin" class="marker flowchart-v2" viewBox="0 0 11.5 14" refX="1" refY="7" markerUnits="userSpaceOnUse" markerWidth="11.5" markerHeight="14" orient="auto"><polygon points="0,7 11.5,14 11.5,0" class="arrowMarkerPath" style="stroke-width: 0; stroke-dasharray: 1, 0;"/></marker><marker id="my-svg_flowchart-v2-circleEnd" class="marker flowchart-v2" viewBox="0 0 10 10" refX="11" refY="5" markerUnits="userSpaceOnUse" markerWidth="11" markerHeight="11" orient="auto"><circle cx="5" cy="5" r="5" class="arrowMarkerPath" style="stroke-width: 1; stroke-dasharray: 1, 0;"/></marker><marker id="my-svg_flowchart-v2-circleStart" class="marker flowchart-v2" viewBox="0 0 10 10" refX="-1" refY="5" markerUnits="userSpaceOnUse" markerWidth="11" markerHeight="11" orient="auto"><circle cx="5" cy="5" r="5" class="arrowMarkerPath" style="stroke-width: 1; stroke-dasharray: 1, 0;"/></marker><marker id="my-svg_flowchart-v2-circleEnd-margin" class="marker flowchart-v2" viewBox="0 0 10 10" refY="5" refX="12.25" markerUnits="userSpaceOnUse" markerWidth="14" markerHeight="14" orient="auto"><circle cx="5" cy="5" r="5" class="arrowMarkerPath" style="stroke-width: 0; stroke-dasharray: 1, 0;"/></marker><marker id="my-svg_flowchart-v2-circleStart-margin" class="marker flowchart-v2" viewBox="0 0 10 10" refX="-2" refY="5" markerUnits="userSpaceOnUse" markerWidth="14" markerHeight="14" orient="auto"><circle cx="5" cy="5" r="5" class="arrowMarkerPath" style="stroke-width: 0; stroke-dasharray: 1, 0;"/></marker><marker id="my-svg_flowchart-v2-crossEnd" class="marker cross flowchart-v2" viewBox="0 0 11 11" refX="12" refY="5.2" markerUnits="userSpaceOnUse" markerWidth="11" markerHeight="11" orient="auto"><path d="M 1,1 l 9,9 M 10,1 l -9,9" class="arrowMarkerPath" style="stroke-width: 2; stroke-dasharray: 1, 0;"/></marker><marker id="my-svg_flowchart-v2-crossStart" class="marker cross flowchart-v2" viewBox="0 0 11 11" refX="-1" refY="5.2" markerUnits="userSpaceOnUse" markerWidth="11" markerHeight="11" orient="auto"><path d="M 1,1 l 9,9 M 10,1 l -9,9" class="arrowMarkerPath" style="stroke-width: 2; stroke-dasharray: 1, 0;"/></marker><marker id="my-svg_flowchart-v2-crossEnd-margin" class="marker cross flowchart-v2" viewBox="0 0 15 15" refX="17.7" refY="7.5" markerUnits="userSpaceOnUse" markerWidth="12" markerHeight="12" orient="auto"><path d="M 1,1 L 14,14 M 1,14 L 14,1" class="arrowMarkerPath" style="stroke-width: 2.5;"/></marker><marker id="my-svg_flowchart-v2-crossStart-margin" class="marker cross flowchart-v2" viewBox="0 0 15 15" refX="-3.5" refY="7.5" markerUnits="userSpaceOnUse" markerWidth="12" markerHeight="12" orient="auto"><path d="M 1,1 L 14,14 M 1,14 L 14,1" class="arrowMarkerPath" style="stroke-width: 2.5; stroke-dasharray: 1, 0;"/></marker><g class="root"><g class="clusters"/><g class="edgePaths"><path d="M2396.281,71.5L2396.198,75.583C2396.115,79.667,2395.948,87.833,2395.865,95.417C2395.781,103,2395.781,110,2395.781,113.5L2395.781,117" id="my-svg-L_START_C_0" class="edge-thickness-normal edge-pattern-solid edge-thickness-normal edge-pattern-solid flowchart-link" style=";" data-edge="true" data-et="edge" data-id="L_START_C_0" data-points="W3sieCI6MjM5Ni4yODEyNSwieSI6NzEuNX0seyJ4IjoyMzk1Ljc4MTI1LCJ5Ijo5Nn0seyJ4IjoyMzk1Ljc4MTI1LCJ5IjoxMjF9XQ==" data-look="classic" marker-end="url(#my-svg_flowchart-v2-pointEnd)"/><path d="M2306.201,223.216L2007.079,244.313C1707.957,265.41,1109.713,307.603,810.591,337.362C511.469,367.12,511.469,384.443,511.469,393.104L511.469,401.766" id="my-svg-L_C_COMP_0" class="edge-thickness-normal edge-pattern-solid edge-thickness-normal edge-pattern-solid flowchart-link" style=";" data-edge="true" data-et="edge" data-id="L_C_COMP_0" data-points="W3sieCI6MjMwNi4yMDA4MTkzNDA3OSwieSI6MjIzLjIxNjQ0NDM0MDc5fSx7IngiOjUxMS40Njg3NSwieSI6MzQ5Ljc5Njg3NX0seyJ4Ijo1MTEuNDY4NzUsInkiOjQwNS43NjU2MjV9XQ==" data-look="classic" marker-end="url(#my-svg_flowchart-v2-pointEnd)"/><path d="M2312.055,229.07L2173.65,249.192C2035.245,269.313,1758.435,309.555,1620.03,335.176C1481.625,360.797,1481.625,371.797,1481.625,377.297L1481.625,382.797" id="my-svg-L_C_LAT_0" class="edge-thickness-normal edge-pattern-solid edge-thickness-normal edge-pattern-solid flowchart-link" style=";" data-edge="true" data-et="edge" data-id="L_C_LAT_0" data-points="W3sieCI6MjMxMi4wNTQ4MTUyMTgyODMyLCJ5IjoyMjkuMDcwNDQwMjE4MjgzNDR9LHsieCI6MTQ4MS42MjUsInkiOjM0OS43OTY4NzV9LHsieCI6MTQ4MS42MjUsInkiOjM4Ni43OTY4NzV9XQ==" data-look="classic" marker-end="url(#my-svg_flowchart-v2-pointEnd)"/><path d="M2395.781,312.797L2395.781,318.964C2395.781,325.13,2395.781,337.464,2395.781,354.197C2395.781,370.93,2395.781,392.063,2395.781,402.629L2395.781,413.195" id="my-svg-L_C_COST_0" class="edge-thickness-normal edge-pattern-solid edge-thickness-normal edge-pattern-solid flowchart-link" style=";" data-edge="true" data-et="edge" data-id="L_C_COST_0" data-points="W3sieCI6MjM5NS43ODEyNSwieSI6MzEyLjc5Njg3NX0seyJ4IjoyMzk1Ljc4MTI1LCJ5IjozNDkuNzk2ODc1fSx7IngiOjIzOTUuNzgxMjUsInkiOjQxNy4xOTUzMTI1fV0=" data-look="classic" marker-end="url(#my-svg_flowchart-v2-pointEnd)"/><path d="M2478.413,230.165L2602.606,250.103C2726.799,270.042,2975.185,309.919,3099.377,338.632C3223.57,367.344,3223.57,384.891,3223.57,393.664L3223.57,402.438" id="my-svg-L_C_FLEX_0" class="edge-thickness-normal edge-pattern-solid edge-thickness-normal edge-pattern-solid flowchart-link" style=";" data-edge="true" data-et="edge" data-id="L_C_FLEX_0" data-points="W3sieCI6MjQ3OC40MTM0MDQyMzY3NzMsInkiOjIzMC4xNjQ3MjA3NjMyMjcwMn0seyJ4IjozMjIzLjU3MDMxMjUsInkiOjM0OS43OTY4NzV9LHsieCI6MzIyMy41NzAzMTI1LCJ5Ijo0MDYuNDM3NX1d" data-look="classic" marker-end="url(#my-svg_flowchart-v2-pointEnd)"/><path d="M2484.074,224.504L2726.502,245.386C2968.93,266.268,3453.785,308.033,3696.213,341.103C3938.641,374.174,3938.641,398.552,3938.641,410.741L3938.641,422.93" id="my-svg-L_C_OPS_0" class="edge-thickness-normal edge-pattern-solid edge-thickness-normal edge-pattern-solid flowchart-link" style=";" data-edge="true" data-et="edge" data-id="L_C_OPS_0" data-points="W3sieCI6MjQ4NC4wNzQzMjA4OTY2NzksInkiOjIyNC41MDM4MDQxMDMzMjA4fSx7IngiOjM5MzguNjQwNjI1LCJ5IjozNDkuNzk2ODc1fSx7IngiOjM5MzguNjQwNjI1LCJ5Ijo0MjYuOTI5Njg3NX1d" data-look="classic" marker-end="url(#my-svg_flowchart-v2-pointEnd)"/><path d="M447.766,514.156L390.901,534.102C334.037,554.047,220.307,593.938,163.443,621.383C106.578,648.828,106.578,663.828,106.578,671.328L106.578,678.828" id="my-svg-L_COMP_FED_0" class="edge-thickness-normal edge-pattern-solid edge-thickness-normal edge-pattern-solid flowchart-link" style=";" data-edge="true" data-et="edge" data-id="L_COMP_FED_0" data-points="W3sieCI6NDQ3Ljc2NTc0MjQwNDAwNTUsInkiOjUxNC4xNTYzNjc0MDQwMDU0fSx7IngiOjEwNi41NzgxMjUsInkiOjYzMy44MjgxMjV9LHsieCI6MTA2LjU3ODEyNSwieSI6NjgyLjgyODEyNX1d" data-look="classic" marker-end="url(#my-svg_flowchart-v2-pointEnd)"/><path d="M467.933,534.324L450.95,550.908C433.966,567.492,399.999,600.66,383.015,626.744C366.031,652.828,366.031,671.828,366.031,681.328L366.031,690.828" id="my-svg-L_COMP_EU_0" class="edge-thickness-normal edge-pattern-solid edge-thickness-normal edge-pattern-solid flowchart-link" style=";" data-edge="true" data-et="edge" data-id="L_COMP_EU_0" data-points="W3sieCI6NDY3LjkzMzE1NjU2MDg1MjMsInkiOjUzNC4zMjM3ODE1NjA4NTI0fSx7IngiOjM2Ni4wMzEyNSwieSI6NjMzLjgyODEyNX0seyJ4IjozNjYuMDMxMjUsInkiOjY5NC44MjgxMjV9XQ==" data-look="classic" marker-end="url(#my-svg_flowchart-v2-pointEnd)"/><path d="M555.004,534.324L571.988,550.908C588.972,567.492,622.939,600.66,639.923,622.744C656.906,644.828,656.906,655.828,656.906,661.328L656.906,666.828" id="my-svg-L_COMP_HEALTH_0" class="edge-thickness-normal edge-pattern-solid edge-thickness-normal edge-pattern-solid flowchart-link" style=";" data-edge="true" data-et="edge" data-id="L_COMP_HEALTH_0" data-points="W3sieCI6NTU1LjAwNDM0MzQzOTE0NzYsInkiOjUzNC4zMjM3ODE1NjA4NTI0fSx7IngiOjY1Ni45MDYyNSwieSI6NjMzLjgyODEyNX0seyJ4Ijo2NTYuOTA2MjUsInkiOjY3MC44MjgxMjV9XQ==" data-look="classic" marker-end="url(#my-svg_flowchart-v2-pointEnd)"/><path d="M576.731,512.598L640.171,532.803C703.612,553.008,830.494,593.418,893.934,623.123C957.375,652.828,957.375,671.828,957.375,681.328L957.375,690.828" id="my-svg-L_COMP_FIN_0" class="edge-thickness-normal edge-pattern-solid edge-thickness-normal edge-pattern-solid flowchart-link" style=";" data-edge="true" data-et="edge" data-id="L_COMP_FIN_0" data-points="W3sieCI6NTc2LjczMDU0OTIwNjY4NjYsInkiOjUxMi41OTc1NzU3OTMzMTM0fSx7IngiOjk1Ny4zNzUsInkiOjYzMy44MjgxMjV9LHsieCI6OTU3LjM3NSwieSI6Njk0LjgyODEyNX1d" data-look="classic" marker-end="url(#my-svg_flowchart-v2-pointEnd)"/><path d="M1413.173,528.377L1380.271,545.952C1347.368,563.527,1281.563,598.678,1248.66,625.753C1215.758,652.828,1215.758,671.828,1215.758,681.328L1215.758,690.828" id="my-svg-L_LAT_GROQ_0" class="edge-thickness-normal edge-pattern-solid edge-thickness-normal edge-pattern-solid flowchart-link" style=";" data-edge="true" data-et="edge" data-id="L_LAT_GROQ_0" data-points="W3sieCI6MTQxMy4xNzM0NTQ1ODg3NjgyLCJ5Ijo1MjguMzc2NTc5NTg4NzY4Mn0seyJ4IjoxMjE1Ljc1NzgxMjUsInkiOjYzMy44MjgxMjV9LHsieCI6MTIxNS43NTc4MTI1LCJ5Ijo2OTQuODI4MTI1fV0=" data-look="classic" marker-end="url(#my-svg_flowchart-v2-pointEnd)"/><path d="M1481.625,596.828L1481.625,602.995C1481.625,609.161,1481.625,621.495,1481.625,637.161C1481.625,652.828,1481.625,671.828,1481.625,681.328L1481.625,690.828" id="my-svg-L_LAT_FW_LAT_0" class="edge-thickness-normal edge-pattern-solid edge-thickness-normal edge-pattern-solid flowchart-link" style=";" data-edge="true" data-et="edge" data-id="L_LAT_FW_LAT_0" data-points="W3sieCI6MTQ4MS42MjUsInkiOjU5Ni44MjgxMjV9LHsieCI6MTQ4MS42MjUsInkiOjYzMy44MjgxMjV9LHsieCI6MTQ4MS42MjUsInkiOjY5NC44MjgxMjV9XQ==" data-look="classic" marker-end="url(#my-svg_flowchart-v2-pointEnd)"/><path d="M1553.218,525.235L1591.986,543.334C1630.755,561.433,1708.291,597.631,1747.06,625.229C1785.828,652.828,1785.828,671.828,1785.828,681.328L1785.828,690.828" id="my-svg-L_LAT_SPEC_0" class="edge-thickness-normal edge-pattern-solid edge-thickness-normal edge-pattern-solid flowchart-link" style=";" data-edge="true" data-et="edge" data-id="L_LAT_SPEC_0" data-points="W3sieCI6MTU1My4yMTc4NzA3NTg2MzE1LCJ5Ijo1MjUuMjM1MjU0MjQxMzY4NX0seyJ4IjoxNzg1LjgyODEyNSwieSI6NjMzLjgyODEyNX0seyJ4IjoxNzg1LjgyODEyNSwieSI6Njk0LjgyODEyNX1d" data-look="classic" marker-end="url(#my-svg_flowchart-v2-pointEnd)"/><path d="M2344.939,515.587L2302.795,535.294C2260.652,555.001,2176.365,594.414,2134.222,621.621C2092.078,648.828,2092.078,663.828,2092.078,671.328L2092.078,678.828" id="my-svg-L_COST_DI_0" class="edge-thickness-normal edge-pattern-solid edge-thickness-normal edge-pattern-solid flowchart-link" style=";" data-edge="true" data-et="edge" data-id="L_COST_DI_0" data-points="W3sieCI6MjM0NC45Mzg3MTA3OTIzNDcsInkiOjUxNS41ODcxNDgyOTIzNDc0fSx7IngiOjIwOTIuMDc4MTI1LCJ5Ijo2MzMuODI4MTI1fSx7IngiOjIwOTIuMDc4MTI1LCJ5Ijo2ODIuODI4MTI1fV0=" data-look="classic" marker-end="url(#my-svg_flowchart-v2-pointEnd)"/><path d="M2395.781,566.43L2395.781,577.663C2395.781,588.896,2395.781,611.362,2395.781,632.095C2395.781,652.828,2395.781,671.828,2395.781,681.328L2395.781,690.828" id="my-svg-L_COST_CALC_0" class="edge-thickness-normal edge-pattern-solid edge-thickness-normal edge-pattern-solid flowchart-link" style=";" data-edge="true" data-et="edge" data-id="L_COST_CALC_0" data-points="W3sieCI6MjM5NS43ODEyNSwieSI6NTY2LjQyOTY4NzV9LHsieCI6MjM5NS43ODEyNSwieSI6NjMzLjgyODEyNX0seyJ4IjoyMzk1Ljc4MTI1LCJ5Ijo2OTQuODI4MTI1fV0=" data-look="classic" marker-end="url(#my-svg_flowchart-v2-pointEnd)"/><path d="M2445.241,516.97L2483.533,536.446C2521.825,555.922,2598.409,594.875,2636.7,623.852C2674.992,652.828,2674.992,671.828,2674.992,681.328L2674.992,690.828" id="my-svg-L_COST_FW_LORA_0" class="edge-thickness-normal edge-pattern-solid edge-thickness-normal edge-pattern-solid flowchart-link" style=";" data-edge="true" data-et="edge" data-id="L_COST_FW_LORA_0" data-points="W3sieCI6MjQ0NS4yNDE0MTQwMzEwNTcsInkiOjUxNi45Njk1MjM0Njg5NDN9LHsieCI6MjY3NC45OTIxODc1LCJ5Ijo2MzMuODI4MTI1fSx7IngiOjI2NzQuOTkyMTg3NSwieSI6Njk0LjgyODEyNX1d" data-look="classic" marker-end="url(#my-svg_flowchart-v2-pointEnd)"/><path d="M3167.444,521.061L3131.378,539.855C3095.311,558.65,3023.179,596.239,2987.113,624.534C2951.047,652.828,2951.047,671.828,2951.047,681.328L2951.047,690.828" id="my-svg-L_FLEX_TOG_0" class="edge-thickness-normal edge-pattern-solid edge-thickness-normal edge-pattern-solid flowchart-link" style=";" data-edge="true" data-et="edge" data-id="L_FLEX_TOG_0" data-points="W3sieCI6MzE2Ny40NDM2NjM0NTQ1NjIsInkiOjUyMS4wNjA4NTA5NTQ1NjE3fSx7IngiOjI5NTEuMDQ2ODc1LCJ5Ijo2MzMuODI4MTI1fSx7IngiOjI5NTEuMDQ2ODc1LCJ5Ijo2OTQuODI4MTI1fV0=" data-look="classic" marker-end="url(#my-svg_flowchart-v2-pointEnd)"/><path d="M3223.57,577.188L3223.57,586.628C3223.57,596.068,3223.57,614.948,3223.57,633.888C3223.57,652.828,3223.57,671.828,3223.57,681.328L3223.57,690.828" id="my-svg-L_FLEX_BAS_0" class="edge-thickness-normal edge-pattern-solid edge-thickness-normal edge-pattern-solid flowchart-link" style=";" data-edge="true" data-et="edge" data-id="L_FLEX_BAS_0" data-points="W3sieCI6MzIyMy41NzAzMTI1LCJ5Ijo1NzcuMTg3NX0seyJ4IjozMjIzLjU3MDMxMjUsInkiOjYzMy44MjgxMjV9LHsieCI6MzIyMy41NzAzMTI1LCJ5Ijo2OTQuODI4MTI1fV0=" data-look="classic" marker-end="url(#my-svg_flowchart-v2-pointEnd)"/><path d="M3279.231,521.527L3314.291,540.244C3349.352,558.961,3419.473,596.394,3454.533,624.611C3489.594,652.828,3489.594,671.828,3489.594,681.328L3489.594,690.828" id="my-svg-L_FLEX_TOG_FT_0" class="edge-thickness-normal edge-pattern-solid edge-thickness-normal edge-pattern-solid flowchart-link" style=";" data-edge="true" data-et="edge" data-id="L_FLEX_TOG_FT_0" data-points="W3sieCI6MzI3OS4yMzEwMzk3Nzc5NDksInkiOjUyMS41MjY3NzI3MjIwNTF9LHsieCI6MzQ4OS41OTM3NSwieSI6NjMzLjgyODEyNX0seyJ4IjozNDg5LjU5Mzc1LCJ5Ijo2OTQuODI4MTI1fV0=" data-look="classic" marker-end="url(#my-svg_flowchart-v2-pointEnd)"/><path d="M3904.781,522.836L3884.591,541.334C3864.401,559.833,3824.021,596.831,3803.831,622.829C3783.641,648.828,3783.641,663.828,3783.641,671.328L3783.641,678.828" id="my-svg-L_OPS_MANAGED_0" class="edge-thickness-normal edge-pattern-solid edge-thickness-normal edge-pattern-solid flowchart-link" style=";" data-edge="true" data-et="edge" data-id="L_OPS_MANAGED_0" data-points="W3sieCI6MzkwNC43ODEwMDU4NzIyMTg0LCJ5Ijo1MjIuODM1NjkzMzcyMjE4NH0seyJ4IjozNzgzLjY0MDYyNSwieSI6NjMzLjgyODEyNX0seyJ4IjozNzgzLjY0MDYyNSwieSI6NjgyLjgyODEyNX1d" data-look="classic" marker-end="url(#my-svg_flowchart-v2-pointEnd)"/><path d="M3972.5,522.836L3992.69,541.334C4012.88,559.833,4053.26,596.831,4073.451,622.829C4093.641,648.828,4093.641,663.828,4093.641,671.328L4093.641,678.828" id="my-svg-L_OPS_SELF_0" class="edge-thickness-normal edge-pattern-solid edge-thickness-normal edge-pattern-solid flowchart-link" style=";" data-edge="true" data-et="edge" data-id="L_OPS_SELF_0" data-points="W3sieCI6Mzk3Mi41MDAyNDQxMjc3ODE2LCJ5Ijo1MjIuODM1NjkzMzcyMjE4NH0seyJ4Ijo0MDkzLjY0MDYyNSwieSI6NjMzLjgyODEyNX0seyJ4Ijo0MDkzLjY0MDYyNSwieSI6NjgyLjgyODEyNX1d" data-look="classic" marker-end="url(#my-svg_flowchart-v2-pointEnd)"/></g><g class="edgeLabels"><g class="edgeLabel"><g class="label" data-id="L_START_C_0" transform="translate(0, 0)"><foreignObject width="0" height="0"><div xmlns="http://www.w3.org/1999/xhtml" class="labelBkg" style="display: table-cell; white-space: nowrap; line-height: 1.5; max-width: 200px; text-align: center;"><span class="edgeLabel"></span></div></foreignObject></g></g><g class="edgeLabel" transform="translate(511.46875, 349.796875)"><g class="label" data-id="L_C_COMP_0" transform="translate(-87.2734375, -12)"><foreignObject width="174.546875" height="24"><div xmlns="http://www.w3.org/1999/xhtml" class="labelBkg" style="display: table-cell; white-space: nowrap; line-height: 1.5; max-width: 200px; text-align: center;"><span class="edgeLabel"><p>Compliance / regulation</p></span></div></foreignObject></g></g><g class="edgeLabel" transform="translate(1481.625, 349.796875)"><g class="label" data-id="L_C_LAT_0" transform="translate(-28.0703125, -12)"><foreignObject width="56.140625" height="24"><div xmlns="http://www.w3.org/1999/xhtml" class="labelBkg" style="display: table-cell; white-space: nowrap; line-height: 1.5; max-width: 200px; text-align: center;"><span class="edgeLabel"><p>Latency</p></span></div></foreignObject></g></g><g class="edgeLabel" transform="translate(2395.78125, 349.796875)"><g class="label" data-id="L_C_COST_0" transform="translate(-15.4921875, -12)"><foreignObject width="30.984375" height="24"><div xmlns="http://www.w3.org/1999/xhtml" class="labelBkg" style="display: table-cell; white-space: nowrap; line-height: 1.5; max-width: 200px; text-align: center;"><span class="edgeLabel"><p>Cost</p></span></div></foreignObject></g></g><g class="edgeLabel" transform="translate(3223.5703125, 349.796875)"><g class="label" data-id="L_C_FLEX_0" transform="translate(-58.0234375, -12)"><foreignObject width="116.046875" height="24"><div xmlns="http://www.w3.org/1999/xhtml" class="labelBkg" style="display: table-cell; white-space: nowrap; line-height: 1.5; max-width: 200px; text-align: center;"><span class="edgeLabel"><p>Model flexibility</p></span></div></foreignObject></g></g><g class="edgeLabel" transform="translate(3938.640625, 349.796875)"><g class="label" data-id="L_C_OPS_0" transform="translate(-79.234375, -12)"><foreignObject width="158.46875" height="24"><div xmlns="http://www.w3.org/1999/xhtml" class="labelBkg" style="display: table-cell; white-space: nowrap; line-height: 1.5; max-width: 200px; text-align: center;"><span class="edgeLabel"><p>Operational simplicity</p></span></div></foreignObject></g></g><g class="edgeLabel" transform="translate(106.578125, 633.828125)"><g class="label" data-id="L_COMP_FED_0" transform="translate(-80.046875, -12)"><foreignObject width="160.09375" height="24"><div xmlns="http://www.w3.org/1999/xhtml" class="labelBkg" style="display: table-cell; white-space: nowrap; line-height: 1.5; max-width: 200px; text-align: center;"><span class="edgeLabel"><p>US Federal / FedRAMP</p></span></div></foreignObject></g></g><g class="edgeLabel" transform="translate(366.03125, 633.828125)"><g class="label" data-id="L_COMP_EU_0" transform="translate(-64.421875, -12)"><foreignObject width="128.84375" height="24"><div xmlns="http://www.w3.org/1999/xhtml" class="labelBkg" style="display: table-cell; white-space: nowrap; line-height: 1.5; max-width: 200px; text-align: center;"><span class="edgeLabel"><p>EU data residency</p></span></div></foreignObject></g></g><g class="edgeLabel" transform="translate(656.90625, 633.828125)"><g class="label" data-id="L_COMP_HEALTH_0" transform="translate(-68.828125, -12)"><foreignObject width="137.65625" height="24"><div xmlns="http://www.w3.org/1999/xhtml" class="labelBkg" style="display: table-cell; white-space: nowrap; line-height: 1.5; max-width: 200px; text-align: center;"><span class="edgeLabel"><p>Healthcare / HIPAA</p></span></div></foreignObject></g></g><g class="edgeLabel" transform="translate(957.375, 633.828125)"><g class="label" data-id="L_COMP_FIN_0" transform="translate(-55.25, -12)"><foreignObject width="110.5" height="24"><div xmlns="http://www.w3.org/1999/xhtml" class="labelBkg" style="display: table-cell; white-space: nowrap; line-height: 1.5; max-width: 200px; text-align: center;"><span class="edgeLabel"><p>Finance + audit</p></span></div></foreignObject></g></g><g class="edgeLabel" transform="translate(1215.7578125, 633.828125)"><g class="label" data-id="L_LAT_GROQ_0" transform="translate(-66.40625, -12)"><foreignObject width="132.8125" height="24"><div xmlns="http://www.w3.org/1999/xhtml" class="labelBkg" style="display: table-cell; white-space: nowrap; line-height: 1.5; max-width: 200px; text-align: center;"><span class="edgeLabel"><p>Raw decode speed</p></span></div></foreignObject></g></g><g class="edgeLabel" transform="translate(1481.625, 633.828125)"><g class="label" data-id="L_LAT_FW_LAT_0" transform="translate(-62.171875, -12)"><foreignObject width="124.34375" height="24"><div xmlns="http://www.w3.org/1999/xhtml" class="labelBkg" style="display: table-cell; white-space: nowrap; line-height: 1.5; max-width: 200px; text-align: center;"><span class="edgeLabel"><p>p95 TTFT &lt;200ms</p></span></div></foreignObject></g></g><g class="edgeLabel" transform="translate(1785.828125, 633.828125)"><g class="label" data-id="L_LAT_SPEC_0" transform="translate(-93.25, -12)"><foreignObject width="186.5" height="24"><div xmlns="http://www.w3.org/1999/xhtml" class="labelBkg" style="display: table-cell; white-space: nowrap; line-height: 1.5; max-width: 200px; text-align: center;"><span class="edgeLabel"><p>Agentic multi-hop &lt;500ms</p></span></div></foreignObject></g></g><g class="edgeLabel" transform="translate(2092.078125, 633.828125)"><g class="label" data-id="L_COST_DI_0" transform="translate(-69.203125, -12)"><foreignObject width="138.40625" height="24"><div xmlns="http://www.w3.org/1999/xhtml" class="labelBkg" style="display: table-cell; white-space: nowrap; line-height: 1.5; max-width: 200px; text-align: center;"><span class="edgeLabel"><p>Minimize per-token</p></span></div></foreignObject></g></g><g class="edgeLabel" transform="translate(2395.78125, 633.828125)"><g class="label" data-id="L_COST_CALC_0" transform="translate(-52.0546875, -12)"><foreignObject width="104.109375" height="24"><div xmlns="http://www.w3.org/1999/xhtml" class="labelBkg" style="display: table-cell; white-space: nowrap; line-height: 1.5; max-width: 200px; text-align: center;"><span class="edgeLabel"><p>Minimize LCPR</p></span></div></foreignObject></g></g><g class="edgeLabel" transform="translate(2674.9921875, 633.828125)"><g class="label" data-id="L_COST_FW_LORA_0" transform="translate(-59.21875, -12)"><foreignObject width="118.4375" height="24"><div xmlns="http://www.w3.org/1999/xhtml" class="labelBkg" style="display: table-cell; white-space: nowrap; line-height: 1.5; max-width: 200px; text-align: center;"><span class="edgeLabel"><p>Need Multi-LoRA</p></span></div></foreignObject></g></g><g class="edgeLabel" transform="translate(2951.046875, 633.828125)"><g class="label" data-id="L_FLEX_TOG_0" transform="translate(-73.734375, -12)"><foreignObject width="147.46875" height="24"><div xmlns="http://www.w3.org/1999/xhtml" class="labelBkg" style="display: table-cell; white-space: nowrap; line-height: 1.5; max-width: 200px; text-align: center;"><span class="edgeLabel"><p>Broad model catalog</p></span></div></foreignObject></g></g><g class="edgeLabel" transform="translate(3223.5703125, 633.828125)"><g class="label" data-id="L_FLEX_BAS_0" transform="translate(-92.0078125, -12)"><foreignObject width="184.015625" height="24"><div xmlns="http://www.w3.org/1999/xhtml" class="labelBkg" style="display: table-cell; white-space: nowrap; line-height: 1.5; max-width: 200px; text-align: center;"><span class="edgeLabel"><p>Custom Docker / TRT-LLM</p></span></div></foreignObject></g></g><g class="edgeLabel" transform="translate(3489.59375, 633.828125)"><g class="label" data-id="L_FLEX_TOG_FT_0" transform="translate(-62.4375, -12)"><foreignObject width="124.875" height="24"><div xmlns="http://www.w3.org/1999/xhtml" class="labelBkg" style="display: table-cell; white-space: nowrap; line-height: 1.5; max-width: 200px; text-align: center;"><span class="edgeLabel"><p>Fine-tune + serve</p></span></div></foreignObject></g></g><g class="edgeLabel" transform="translate(3783.640625, 633.828125)"><g class="label" data-id="L_OPS_MANAGED_0" transform="translate(-61.359375, -12)"><foreignObject width="122.71875" height="24"><div xmlns="http://www.w3.org/1999/xhtml" class="labelBkg" style="display: table-cell; white-space: nowrap; line-height: 1.5; max-width: 200px; text-align: center;"><span class="edgeLabel"><p>No ML infra team</p></span></div></foreignObject></g></g><g class="edgeLabel" transform="translate(4093.640625, 633.828125)"><g class="label" data-id="L_OPS_SELF_0" transform="translate(-73.9375, -12)"><foreignObject width="147.875" height="24"><div xmlns="http://www.w3.org/1999/xhtml" class="labelBkg" style="display: table-cell; white-space: nowrap; line-height: 1.5; max-width: 200px; text-align: center;"><span class="edgeLabel"><p>Have infra engineers</p></span></div></foreignObject></g></g></g><g class="nodes"><g class="node default" id="my-svg-flowchart-START-0" data-look="classic" transform="translate(2395.78125, 39.5)"><g class="basic label-container outer-path"><path d="M-53.140625 -31.5 C-10.727130398939195 -31.5, 31.68636420212161 -31.5, 53.140625 -31.5 C53.140625 -31.5, 53.140625 -31.5, 53.140625 -31.5 C53.754447795011 -31.480315897697587, 54.36827059002199 -31.460631795395177, 55.15883692939246 -31.435279871635593 C55.89332990733747 -31.364424217410285, 56.627822885282484 -31.293568563184973, 57.16875559306194 -31.241385435432253 C57.95466031198777 -31.114326455258446, 58.74056503091361 -30.98726747508464, 59.162121804093225 -30.91911344521856 C59.84647473620141 -30.7629143542851, 60.530827668309584 -30.606715263351646, 61.13074439314948 -30.469788185729428 C61.81816507743268 -30.265765334978976, 62.505585761715885 -30.061742484228528, 63.06653386774405 -29.895256030836062 C63.52289678980942 -29.727310256943397, 63.979259711874796 -29.559364483050732, 64.96153565370028 -29.197877856399685 C65.55284904979267 -28.93612095663826, 66.14416244588506 -28.674364056876833, 66.80796278220308 -28.380519338926202 C67.33237265083636 -28.10693504636077, 67.85678251946965 -27.83335075379534, 68.59822788812403 -27.44653917988677 C69.11761499128144 -27.131683665695334, 69.63700209443886 -26.816828151503895, 70.32497438813228 -26.399775304092984 C70.87678197326044 -26.014858220072938, 71.42858955838861 -25.629941136052892, 71.9811067104733 -25.244529088840633 C72.43026066610688 -24.88634076171159, 72.87941462174045 -24.528152434582548, 73.55981945219533 -23.985547688627737 C73.93371691386179 -23.64598390672699, 74.30761437552825 -23.306420124826243, 75.05462534400982 -22.62800452807842 C75.42795101809486 -22.242515118977753, 75.8012766921799 -21.857025709877085, 76.45938190787243 -21.177478043231485 C76.93227390222864 -20.621992198343914, 77.40516589658486 -20.066506353456347, 77.76831669774293 -19.63992875855011 C78.1978539535447 -19.06438796742477, 78.62739120934646 -18.488847176299434, 78.9760510198041 -18.02167479384835 C79.36056208514037 -17.430962541813635, 79.74507315047664 -16.840250289778915, 80.0776220346684 -16.329365901781543 C80.417192820272 -15.726423586671686, 80.75676360587562 -15.123481271561827, 81.0685031507495 -14.56995614258631 C81.24937945469763 -14.194362627305116, 81.43025575864574 -13.81876911202392, 81.94462262499809 -12.750675308355413 C82.23478021704624 -12.033980446181099, 82.52493780909437 -11.317285584006783, 82.70238029456745 -10.878999214271206 C82.90849356844394 -10.258218873045692, 83.11460684232044 -9.637438531820177, 83.33866237065482 -8.962618978877531 C83.5424216111348 -8.185596685113929, 83.74618085161477 -7.408574391350326, 83.85085423372745 -7.009409419623907 C83.94969214633024 -6.5018976278087965, 84.04853005893303 -5.994385835993687, 84.23685117755518 -5.027396693551458 C84.33200259047437 -4.289421124721956, 84.42715400339357 -3.551445555892456, 84.49506705789975 -3.024725316091981 C84.54284684330037 -2.2805165913286127, 84.590626628701 -1.5363078665652443, 84.62444081032167 -1.0096246935071378 C84.62444081032167 -0.25344229165960264, 84.62444081032167 0.5027401101879325, 84.62444081032167 1.00962469350713 C84.58531836097576 1.6189884211423713, 84.54619591162985 2.2283521487776126, 84.49506705789975 3.02472531609196 C84.43563176447113 3.485693715098141, 84.3761964710425 3.9466621141043223, 84.23685117755518 5.027396693551435 C84.1481578615527 5.482818125885192, 84.05946454555023 5.938239558218949, 83.85085423372745 7.0094094196239 C83.67804535580231 7.668404566993897, 83.50523647787718 8.327399714363894, 83.33866237065482 8.96261897887751 C83.14393929956236 9.549093844099891, 82.9492162284699 10.135568709322273, 82.70238029456746 10.878999214271184 C82.50808880127774 11.35890295906728, 82.31379730798801 11.838806703863376, 81.94462262499809 12.750675308355405 C81.76618221112763 13.121210645770644, 81.58774179725717 13.491745983185885, 81.0685031507495 14.569956142586303 C80.79911997836344 15.048273243161896, 80.52973680597738 15.526590343737489, 80.07762203466841 16.329365901781536 C79.68489098205279 16.932706261652974, 79.29215992943716 17.536046621524417, 78.97605101980412 18.021674793848334 C78.6833430193177 18.413876848252702, 78.3906350188313 18.80607890265707, 77.76831669774295 19.639928758550102 C77.40868112914458 20.06237716126931, 77.04904556054622 20.484825563988522, 76.45938190787246 21.177478043231467 C76.07743870109886 21.571865762345666, 75.69549549432526 21.966253481459862, 75.05462534400982 22.628004528078414 C74.62462917665002 23.018515670199445, 74.19463300929021 23.409026812320477, 73.55981945219536 23.985547688627715 C73.01553233126161 24.419602183483796, 72.47124521032787 24.853656678339878, 71.98110671047331 25.24452908884063 C71.37200136024279 25.669414613415803, 70.76289601001227 26.094300137990977, 70.32497438813229 26.399775304092973 C69.95406408595177 26.624623308985687, 69.58315378377125 26.8494713138784, 68.59822788812404 27.446539179886766 C68.06449107748861 27.724989332120526, 67.5307542668532 28.003439484354285, 66.80796278220309 28.3805193389262 C66.3462598284991 28.58490154059945, 65.88455687479511 28.7892837422727, 64.9615356537003 29.197877856399682 C64.30720072098023 29.438679160246476, 63.65286578826017 29.67948046409327, 63.06653386774407 29.895256030836055 C62.45114674370523 30.077899699017856, 61.83575961966638 30.260543367199652, 61.13074439314951 30.46978818572942 C60.44907600864294 30.62537454619112, 59.76740762413636 30.780960906652822, 59.16212180409324 30.919113445218557 C58.48419819024815 31.028714877728888, 57.806274576403055 31.138316310239215, 57.16875559306196 31.24138543543225 C56.584065537436544 31.29778978190576, 55.99937548181113 31.354194128379273, 55.15883692939246 31.435279871635593 C54.5903890737876 31.453508887948214, 54.02194121818274 31.47173790426083, 53.14062500000001 31.5 C53.14062500000001 31.5, 53.140625 31.5, 53.140625 31.5 C12.286367269470496 31.5, -28.567890461059008 31.5, -53.14062499999999 31.5 C-53.854003513199565 31.47712333958873, -54.56738202639914 31.45424667917746, -55.15883692939244 31.435279871635593 C-55.80933526984835 31.372527079070526, -56.45983361030426 31.30977428650546, -57.168755593061945 31.24138543543225 C-57.77755705983596 31.142959135610116, -58.386358526609975 31.04453283578798, -59.162121804093225 30.919113445218557 C-59.94732658007448 30.739895579040855, -60.73253135605574 30.560677712863153, -61.13074439314947 30.469788185729428 C-61.86835004533885 30.250870699930697, -62.60595569752823 30.031953214131967, -63.066533867744035 29.89525603083607 C-63.61202858390424 29.694508932791233, -64.15752330006444 29.493761834746397, -64.96153565370028 29.197877856399685 C-65.38938510980307 29.00848159388616, -65.81723456590586 28.819085331372634, -66.80796278220308 28.380519338926206 C-67.31904383164579 28.11388868279498, -67.8301248810885 27.847258026663752, -68.59822788812403 27.446539179886773 C-69.00216849516113 27.201668010082383, -69.40610910219824 26.956796840277992, -70.32497438813226 26.399775304092994 C-70.80479515629662 26.06507310732782, -71.28461592446098 25.730370910562648, -71.9811067104733 25.244529088840636 C-72.55289622291836 24.788542168623657, -73.12468573536341 24.33255524840668, -73.55981945219533 23.98554768862774 C-73.90000391645633 23.67660115897359, -74.24018838071734 23.36765462931944, -75.0546253440098 22.628004528078435 C-75.52345235852502 22.143902144177748, -75.99227937304022 21.65979976027706, -76.45938190787244 21.177478043231478 C-76.83058930839287 20.741436708280716, -77.2017967089133 20.305395373329954, -77.76831669774293 19.639928758550113 C-78.07159542513612 19.233562893103684, -78.37487415252933 18.82719702765726, -78.9760510198041 18.021674793848355 C-79.27912119887912 17.556077613050967, -79.58219137795415 17.090480432253578, -80.0776220346684 16.329365901781557 C-80.37653083438828 15.798623060080821, -80.67543963410814 15.267880218380084, -81.0685031507495 14.569956142586314 C-81.30151302934071 14.086106144078967, -81.5345229079319 13.60225614557162, -81.94462262499809 12.750675308355417 C-82.24349607738625 12.012452102631544, -82.54236952977442 11.274228896907669, -82.70238029456745 10.878999214271209 C-82.89012916245824 10.313529537903896, -83.07787803034903 9.748059861536584, -83.33866237065482 8.962618978877522 C-83.46628575442824 8.475935704225005, -83.59390913820168 7.989252429572487, -83.85085423372743 7.009409419623911 C-83.96057620658797 6.4460102787322295, -84.07029817944851 5.882611137840547, -84.23685117755518 5.027396693551461 C-84.31331071453874 4.434391623350329, -84.3897702515223 3.841386553149198, -84.49506705789975 3.024725316091999 C-84.53811078209456 2.3542845674888655, -84.58115450628938 1.683843818885732, -84.62444081032167 1.0096246935071416 C-84.62444081032167 0.44681362281785586, -84.62444081032167 -0.11599744787142985, -84.62444081032167 -1.0096246935071262 C-84.58165136046442 -1.6761049140560045, -84.53886191060718 -2.3425851346048825, -84.49506705789975 -3.024725316091956 C-84.40853586089733 -3.6958441925250876, -84.32200466389493 -4.366963068958219, -84.23685117755518 -5.027396693551446 C-84.1412089389071 -5.518499375015081, -84.045566700259 -6.009602056478716, -83.85085423372745 -7.009409419623896 C-83.65209227181224 -7.767374924385831, -83.45333030989701 -8.525340429147766, -83.33866237065482 -8.962618978877506 C-83.10772411574756 -9.658168207644113, -82.8767858608403 -10.353717436410722, -82.70238029456746 -10.878999214271168 C-82.45497416095442 -11.490097147567552, -82.2075680273414 -12.101195080863935, -81.94462262499809 -12.750675308355401 C-81.68618658252407 -13.28732328019819, -81.42775054005004 -13.823971252040979, -81.0685031507495 -14.5699561425863 C-80.69020928051974 -15.241655215587427, -80.31191541028996 -15.913354288588556, -80.0776220346684 -16.329365901781546 C-79.7237033575109 -16.873080030367195, -79.36978468035342 -17.416794158952843, -78.97605101980412 -18.021674793848344 C-78.66073026160055 -18.444175883529102, -78.34540950339698 -18.86667697320986, -77.76831669774295 -19.639928758550102 C-77.47714246782395 -19.981958577295995, -77.18596823790496 -20.32398839604189, -76.45938190787246 -21.177478043231467 C-76.17341327164449 -21.472764138598514, -75.88744463541653 -21.768050233965557, -75.05462534400984 -22.628004528078403 C-74.72224610652444 -22.929862557289923, -74.38986686903905 -23.231720586501442, -73.55981945219536 -23.98554768862771 C-73.11026921612738 -24.344052038857733, -72.66071898005939 -24.702556389087754, -71.98110671047331 -25.244529088840626 C-71.64880764462896 -25.47632653217893, -71.3165085787846 -25.708123975517235, -70.3249743881323 -26.39977530409297 C-69.82439232837336 -26.703231090465554, -69.32381026861442 -27.006686876838135, -68.59822788812404 -27.446539179886763 C-67.91199853402851 -27.804544594367528, -67.22576917993297 -28.16255000884829, -66.80796278220309 -28.3805193389262 C-66.27753576852207 -28.615323643324476, -65.74710875484104 -28.850127947722754, -64.9615356537003 -29.19787785639968 C-64.35274977218755 -29.42191668835137, -63.74396389067479 -29.645955520303065, -63.06653386774408 -29.895256030836055 C-62.50959531703767 -30.060552469255608, -61.95265676633126 -30.22584890767516, -61.13074439314951 -30.469788185729417 C-60.66561438317286 -30.575951075249613, -60.200484373196204 -30.68211396476981, -59.16212180409324 -30.919113445218553 C-58.56393943368286 -31.015822931892938, -57.965757063272484 -31.112532418567323, -57.16875559306196 -31.24138543543225 C-56.5454754090764 -31.301512525177245, -55.922195225090846 -31.36163961492224, -55.15883692939246 -31.435279871635593 C-54.71915574801936 -31.449379591334726, -54.27947456664626 -31.46347931103386, -53.14062500000001 -31.5 C-53.14062500000001 -31.5, -53.140625 -31.5, -53.140625 -31.5" stroke="none" stroke-width="0" fill="#1f2020" style=""/><path d="M-53.140625 -31.5 C-30.726226698072917 -31.5, -8.311828396145835 -31.5, 53.140625 -31.5 M-53.140625 -31.5 C-21.501817547371964 -31.5, 10.136989905256073 -31.5, 53.140625 -31.5 M53.140625 -31.5 C53.140625 -31.5, 53.140625 -31.5, 53.140625 -31.5 M53.140625 -31.5 C53.140625 -31.5, 53.140625 -31.5, 53.140625 -31.5 M53.140625 -31.5 C53.59709434453042 -31.485361916584587, 54.05356368906083 -31.470723833169178, 55.15883692939246 -31.435279871635593 M53.140625 -31.5 C53.913604795818934 -31.475212042461987, 54.68658459163786 -31.45042408492397, 55.15883692939246 -31.435279871635593 M55.15883692939246 -31.435279871635593 C55.64688923810038 -31.388198052383316, 56.13494154680831 -31.341116233131043, 57.16875559306194 -31.241385435432253 M55.15883692939246 -31.435279871635593 C55.72605305478516 -31.380561214196156, 56.293269180177866 -31.32584255675672, 57.16875559306194 -31.241385435432253 M57.16875559306194 -31.241385435432253 C57.93473007271826 -31.117548621782227, 58.70070455237459 -30.9937118081322, 59.162121804093225 -30.91911344521856 M57.16875559306194 -31.241385435432253 C57.863776168349155 -31.129019898784875, 58.55879674363637 -31.0166543621375, 59.162121804093225 -30.91911344521856 M59.162121804093225 -30.91911344521856 C59.75659717003801 -30.783428322255965, 60.3510725359828 -30.64774319929337, 61.13074439314948 -30.469788185729428 M59.162121804093225 -30.91911344521856 C59.59355615051134 -30.820641371020844, 60.024990496929455 -30.722169296823132, 61.13074439314948 -30.469788185729428 M61.13074439314948 -30.469788185729428 C61.89588215197693 -30.242699315199495, 62.66101991080437 -30.015610444669562, 63.06653386774405 -29.895256030836062 M61.13074439314948 -30.469788185729428 C61.55936065460207 -30.342577129182967, 61.987976916054656 -30.215366072636506, 63.06653386774405 -29.895256030836062 M63.06653386774405 -29.895256030836062 C63.6440879646727 -29.68271078431477, 64.22164206160134 -29.470165537793484, 64.96153565370028 -29.197877856399685 M63.06653386774405 -29.895256030836062 C63.658345723863995 -29.677463797135093, 64.25015757998395 -29.459671563434124, 64.96153565370028 -29.197877856399685 M64.96153565370028 -29.197877856399685 C65.39056737264828 -29.007958241195166, 65.81959909159627 -28.818038625990646, 66.80796278220308 -28.380519338926202 M64.96153565370028 -29.197877856399685 C65.6879738628604 -28.876305210228335, 66.41441207202054 -28.554732564056984, 66.80796278220308 -28.380519338926202 M66.80796278220308 -28.380519338926202 C67.47011311902712 -28.035075932332635, 68.13226345585115 -27.689632525739068, 68.59822788812403 -27.44653917988677 M66.80796278220308 -28.380519338926202 C67.49814933425476 -28.02044945680642, 68.18833588630645 -27.660379574686644, 68.59822788812403 -27.44653917988677 M68.59822788812403 -27.44653917988677 C69.25718591052903 -27.04707495423768, 69.91614393293403 -26.64761072858859, 70.32497438813228 -26.399775304092984 M68.59822788812403 -27.44653917988677 C69.09634137576126 -27.14457985644131, 69.59445486339848 -26.842620532995856, 70.32497438813228 -26.399775304092984 M70.32497438813228 -26.399775304092984 C70.80353710410846 -26.06595067007408, 71.28209982008464 -25.732126036055178, 71.9811067104733 -25.244529088840633 M70.32497438813228 -26.399775304092984 C70.77111440853236 -26.088567338952103, 71.21725442893242 -25.777359373811223, 71.9811067104733 -25.244529088840633 M71.9811067104733 -25.244529088840633 C72.29734800561579 -24.992335071498793, 72.61358930075828 -24.740141054156954, 73.55981945219533 -23.985547688627737 M71.9811067104733 -25.244529088840633 C72.49636428540921 -24.833624884409154, 73.01162186034514 -24.42272067997768, 73.55981945219533 -23.985547688627737 M73.55981945219533 -23.985547688627737 C73.91733065460889 -23.66086547382381, 74.27484185702244 -23.336183259019887, 75.05462534400982 -22.62800452807842 M73.55981945219533 -23.985547688627737 C73.88737017793605 -23.688074786027315, 74.21492090367676 -23.39060188342689, 75.05462534400982 -22.62800452807842 M75.05462534400982 -22.62800452807842 C75.50911789605753 -22.15870365355668, 75.96361044810523 -21.689402779034946, 76.45938190787243 -21.177478043231485 M75.05462534400982 -22.62800452807842 C75.40888440017771 -22.262202967375647, 75.7631434563456 -21.896401406672876, 76.45938190787243 -21.177478043231485 M76.45938190787243 -21.177478043231485 C76.87991260767876 -20.683498754364276, 77.30044330748508 -20.18951946549707, 77.76831669774293 -19.63992875855011 M76.45938190787243 -21.177478043231485 C76.91429951286412 -20.643105938863215, 77.36921711785581 -20.108733834494945, 77.76831669774293 -19.63992875855011 M77.76831669774293 -19.63992875855011 C78.17754491774902 -19.091600225199745, 78.58677313775512 -18.543271691849377, 78.9760510198041 -18.02167479384835 M77.76831669774293 -19.63992875855011 C78.23791679424984 -19.01070741067975, 78.70751689075674 -18.38148606280939, 78.9760510198041 -18.02167479384835 M78.9760510198041 -18.02167479384835 C79.2416939067055 -17.613575984464802, 79.50733679360691 -17.20547717508125, 80.0776220346684 -16.329365901781543 M78.9760510198041 -18.02167479384835 C79.2173914355088 -17.65091110635021, 79.45873185121349 -17.28014741885207, 80.0776220346684 -16.329365901781543 M80.0776220346684 -16.329365901781543 C80.46098559403303 -15.64866508235977, 80.84434915339769 -14.967964262937995, 81.0685031507495 -14.56995614258631 M80.0776220346684 -16.329365901781543 C80.37953387952412 -15.793290849350813, 80.68144572437986 -15.25721579692008, 81.0685031507495 -14.56995614258631 M81.0685031507495 -14.56995614258631 C81.3307196662616 -14.025457937590796, 81.5929361817737 -13.48095973259528, 81.94462262499809 -12.750675308355413 M81.0685031507495 -14.56995614258631 C81.38152570044525 -13.91995812053346, 81.694548250141 -13.269960098480611, 81.94462262499809 -12.750675308355413 M81.94462262499809 -12.750675308355413 C82.14490212714786 -12.255981065904722, 82.34518162929763 -11.761286823454029, 82.70238029456745 -10.878999214271206 M81.94462262499809 -12.750675308355413 C82.13685691381491 -12.275852898380744, 82.32909120263172 -11.801030488406074, 82.70238029456745 -10.878999214271206 M82.70238029456745 -10.878999214271206 C82.91036702475084 -10.252576321144044, 83.11835375493423 -9.626153428016883, 83.33866237065482 -8.962618978877531 M82.70238029456745 -10.878999214271206 C82.87721354043394 -10.352429333616138, 83.05204678630045 -9.82585945296107, 83.33866237065482 -8.962618978877531 M83.33866237065482 -8.962618978877531 C83.44789000209501 -8.546086680641174, 83.55711763353519 -8.12955438240482, 83.85085423372745 -7.009409419623907 M83.33866237065482 -8.962618978877531 C83.52372911551882 -8.256879272276482, 83.70879586038282 -7.551139565675433, 83.85085423372745 -7.009409419623907 M83.85085423372745 -7.009409419623907 C83.97182575400016 -6.38824623036338, 84.09279727427288 -5.767083041102853, 84.23685117755518 -5.027396693551458 M83.85085423372745 -7.009409419623907 C83.98512055877133 -6.319980217721395, 84.11938688381522 -5.630551015818882, 84.23685117755518 -5.027396693551458 M84.23685117755518 -5.027396693551458 C84.33224826496998 -4.287515721847936, 84.42764535238477 -3.547634750144415, 84.49506705789975 -3.024725316091981 M84.23685117755518 -5.027396693551458 C84.32337318714288 -4.356349072892555, 84.40989519673059 -3.6853014522336522, 84.49506705789975 -3.024725316091981 M84.49506705789975 -3.024725316091981 C84.53058439877098 -2.4715140629409533, 84.56610173964222 -1.9183028097899253, 84.62444081032167 -1.0096246935071378 M84.49506705789975 -3.024725316091981 C84.53279650284878 -2.437058756350876, 84.57052594779783 -1.849392196609771, 84.62444081032167 -1.0096246935071378 M84.62444081032167 -1.0096246935071378 C84.62444081032167 -0.5833842713990229, 84.62444081032167 -0.15714384929090797, 84.62444081032167 1.00962469350713 M84.62444081032167 -1.0096246935071378 C84.62444081032167 -0.5234135352710638, 84.62444081032167 -0.03720237703498985, 84.62444081032167 1.00962469350713 M84.62444081032167 1.00962469350713 C84.58655248780083 1.5997658996728048, 84.54866416527997 2.18990710583848, 84.49506705789975 3.02472531609196 M84.62444081032167 1.00962469350713 C84.58254836606073 1.6621333278436539, 84.5406559217998 2.3146419621801777, 84.49506705789975 3.02472531609196 M84.49506705789975 3.02472531609196 C84.43013883204871 3.5282958142641543, 84.36521060619768 4.031866312436349, 84.23685117755518 5.027396693551435 M84.49506705789975 3.02472531609196 C84.41202447582064 3.6687871840848705, 84.32898189374153 4.312849052077781, 84.23685117755518 5.027396693551435 M84.23685117755518 5.027396693551435 C84.0826462820793 5.819206240603931, 83.92844138660341 6.611015787656426, 83.85085423372745 7.0094094196239 M84.23685117755518 5.027396693551435 C84.15731009653764 5.435823333563059, 84.0777690155201 5.844249973574684, 83.85085423372745 7.0094094196239 M83.85085423372745 7.0094094196239 C83.6616912040762 7.73077003545974, 83.47252817442497 8.45213065129558, 83.33866237065482 8.96261897887751 M83.85085423372745 7.0094094196239 C83.69019553735015 7.6220706588299825, 83.52953684097287 8.234731898036065, 83.33866237065482 8.96261897887751 M83.33866237065482 8.96261897887751 C83.1817614202623 9.435179642688203, 83.0248604698698 9.907740306498898, 82.70238029456746 10.878999214271184 M83.33866237065482 8.96261897887751 C83.20578909901732 9.3628121025688, 83.07291582737984 9.763005226260088, 82.70238029456746 10.878999214271184 M82.70238029456746 10.878999214271184 C82.50834298318743 11.358275124836046, 82.31430567180742 11.837551035400907, 81.94462262499809 12.750675308355405 M82.70238029456746 10.878999214271184 C82.45222296522978 11.496892654198184, 82.2020656358921 12.114786094125185, 81.94462262499809 12.750675308355405 M81.94462262499809 12.750675308355405 C81.69155125759625 13.27618341762515, 81.4384798901944 13.801691526894897, 81.0685031507495 14.569956142586303 M81.94462262499809 12.750675308355405 C81.7205317678674 13.21600476796352, 81.49644091073671 13.681334227571636, 81.0685031507495 14.569956142586303 M81.0685031507495 14.569956142586303 C80.78943888102647 15.065463011801086, 80.51037461130345 15.560969881015868, 80.07762203466841 16.329365901781536 M81.0685031507495 14.569956142586303 C80.69253224006236 15.237530565694337, 80.31656132937522 15.905104988802371, 80.07762203466841 16.329365901781536 M80.07762203466841 16.329365901781536 C79.75149062690994 16.83039132264368, 79.42535921915146 17.331416743505827, 78.97605101980412 18.021674793848334 M80.07762203466841 16.329365901781536 C79.67372175699384 16.9498651907004, 79.26982147931926 17.57036447961926, 78.97605101980412 18.021674793848334 M78.97605101980412 18.021674793848334 C78.5158750996062 18.638268604024773, 78.0556991794083 19.254862414201213, 77.76831669774295 19.639928758550102 M78.97605101980412 18.021674793848334 C78.73022637258073 18.351057426041603, 78.48440172535734 18.680440058234872, 77.76831669774295 19.639928758550102 M77.76831669774295 19.639928758550102 C77.3603241359246 20.119180037096356, 76.95233157410627 20.598431315642614, 76.45938190787246 21.177478043231467 M77.76831669774295 19.639928758550102 C77.4071489777094 20.064176913526964, 77.04598125767585 20.48842506850383, 76.45938190787246 21.177478043231467 M76.45938190787246 21.177478043231467 C76.15823752901787 21.488434338812137, 75.85709315016328 21.79939063439281, 75.05462534400982 22.628004528078414 M76.45938190787246 21.177478043231467 C76.12225026549093 21.52559414301299, 75.7851186231094 21.873710242794512, 75.05462534400982 22.628004528078414 M75.05462534400982 22.628004528078414 C74.57108348511875 23.067144450506785, 74.08754162622766 23.506284372935156, 73.55981945219536 23.985547688627715 M75.05462534400982 22.628004528078414 C74.60254444035996 23.038572443367975, 74.15046353671009 23.449140358657537, 73.55981945219536 23.985547688627715 M73.55981945219536 23.985547688627715 C72.98385941879388 24.444860488325208, 72.40789938539243 24.904173288022697, 71.98110671047331 25.24452908884063 M73.55981945219536 23.985547688627715 C72.9980165710387 24.433570536147613, 72.43621368988204 24.88159338366751, 71.98110671047331 25.24452908884063 M71.98110671047331 25.24452908884063 C71.62313743927014 25.49423295619197, 71.26516816806695 25.74393682354331, 70.32497438813229 26.399775304092973 M71.98110671047331 25.24452908884063 C71.4500052482042 25.615002477907804, 70.9189037859351 25.985475866974983, 70.32497438813229 26.399775304092973 M70.32497438813229 26.399775304092973 C69.64289691034617 26.813254679459103, 68.96081943256003 27.226734054825236, 68.59822788812404 27.446539179886766 M70.32497438813229 26.399775304092973 C69.68928834629618 26.785131918359866, 69.05360230446006 27.170488532626763, 68.59822788812404 27.446539179886766 M68.59822788812404 27.446539179886766 C68.16585543781969 27.672107610262778, 67.73348298751532 27.897676040638792, 66.80796278220309 28.3805193389262 M68.59822788812404 27.446539179886766 C68.12951037110037 27.691068808290122, 67.66079285407667 27.935598436693482, 66.80796278220309 28.3805193389262 M66.80796278220309 28.3805193389262 C66.30383171605696 28.603683207392343, 65.79970064991085 28.826847075858492, 64.9615356537003 29.197877856399682 M66.80796278220309 28.3805193389262 C66.27849084769797 28.614900858104722, 65.74901891319286 28.84928237728324, 64.9615356537003 29.197877856399682 M64.9615356537003 29.197877856399682 C64.48330251423148 29.373872072462888, 64.00506937476266 29.549866288526093, 63.06653386774407 29.895256030836055 M64.9615356537003 29.197877856399682 C64.38091338395628 29.411552218878906, 63.80029111421226 29.625226581358127, 63.06653386774407 29.895256030836055 M63.06653386774407 29.895256030836055 C62.365190105828894 30.10341117794395, 61.66384634391372 30.311566325051846, 61.13074439314951 30.46978818572942 M63.06653386774407 29.895256030836055 C62.33632917491826 30.111976950744108, 61.60612448209246 30.32869787065216, 61.13074439314951 30.46978818572942 M61.13074439314951 30.46978818572942 C60.3899385161704 30.638872292939773, 59.64913263919129 30.80795640015013, 59.16212180409324 30.919113445218557 M61.13074439314951 30.46978818572942 C60.691593382887 30.57002153809368, 60.252442372624486 30.67025489045794, 59.16212180409324 30.919113445218557 M59.16212180409324 30.919113445218557 C58.71434226362006 30.99150696874006, 58.26656272314688 31.063900492261563, 57.16875559306196 31.24138543543225 M59.16212180409324 30.919113445218557 C58.717683783307216 30.990966737750913, 58.2732457625212 31.06282003028327, 57.16875559306196 31.24138543543225 M57.16875559306196 31.24138543543225 C56.47163490974834 31.30863582934123, 55.77451422643472 31.37588622325021, 55.15883692939246 31.435279871635593 M57.16875559306196 31.24138543543225 C56.65349387334371 31.291092113840588, 56.13823215362547 31.340798792248922, 55.15883692939246 31.435279871635593 M55.15883692939246 31.435279871635593 C54.67224780587704 31.45088383773846, 54.185658682361634 31.46648780384133, 53.14062500000001 31.5 M55.15883692939246 31.435279871635593 C54.63539598106034 31.452065604032608, 54.111955032728225 31.46885133642962, 53.14062500000001 31.5 M53.14062500000001 31.5 C53.14062500000001 31.5, 53.140625 31.5, 53.140625 31.5 M53.14062500000001 31.5 C53.14062500000001 31.5, 53.140625 31.5, 53.140625 31.5 M53.140625 31.5 C15.288229012342605 31.5, -22.56416697531479 31.5, -53.14062499999999 31.5 M53.140625 31.5 C15.493231033889195 31.5, -22.15416293222161 31.5, -53.14062499999999 31.5 M-53.14062499999999 31.5 C-53.89775825831118 31.475720210076446, -54.654891516622364 31.45144042015289, -55.15883692939244 31.435279871635593 M-53.14062499999999 31.5 C-53.905647508041525 31.475467217193085, -54.67067001608306 31.45093443438617, -55.15883692939244 31.435279871635593 M-55.15883692939244 31.435279871635593 C-55.71759397949808 31.38137725101557, -56.27635102960373 31.32747463039555, -57.168755593061945 31.24138543543225 M-55.15883692939244 31.435279871635593 C-55.786355149495435 31.374743943643335, -56.41387336959843 31.314208015651076, -57.168755593061945 31.24138543543225 M-57.168755593061945 31.24138543543225 C-57.57654585785312 31.17545706788155, -57.98433612264429 31.109528700330845, -59.162121804093225 30.919113445218557 M-57.168755593061945 31.24138543543225 C-57.75603840022653 31.14643810561607, -58.343321207391114 31.05149077579989, -59.162121804093225 30.919113445218557 M-59.162121804093225 30.919113445218557 C-59.59592804877608 30.82010000072, -60.02973429345894 30.72108655622144, -61.13074439314947 30.469788185729428 M-59.162121804093225 30.919113445218557 C-59.69978485516113 30.79639536239161, -60.23744790622903 30.673677279564664, -61.13074439314947 30.469788185729428 M-61.13074439314947 30.469788185729428 C-61.67651826829381 30.30780536441212, -62.22229214343815 30.14582254309481, -63.066533867744035 29.89525603083607 M-61.13074439314947 30.469788185729428 C-61.56371669484386 30.34128427930452, -61.99668899653826 30.212780372879617, -63.066533867744035 29.89525603083607 M-63.066533867744035 29.89525603083607 C-63.71922005698612 29.655061479829985, -64.3719062462282 29.414866928823905, -64.96153565370028 29.197877856399685 M-63.066533867744035 29.89525603083607 C-63.592100500415164 29.7018426517284, -64.1176671330863 29.508429272620724, -64.96153565370028 29.197877856399685 M-64.96153565370028 29.197877856399685 C-65.61023279559834 28.91071887459843, -66.2589299374964 28.62355989279717, -66.80796278220308 28.380519338926206 M-64.96153565370028 29.197877856399685 C-65.67263997615035 28.883093067011288, -66.38374429860043 28.56830827762289, -66.80796278220308 28.380519338926206 M-66.80796278220308 28.380519338926206 C-67.22653907127895 28.162148357026233, -67.64511536035481 27.943777375126263, -68.59822788812403 27.446539179886773 M-66.80796278220308 28.380519338926206 C-67.43917274873209 28.0512175036973, -68.0703827152611 27.72191566846839, -68.59822788812403 27.446539179886773 M-68.59822788812403 27.446539179886773 C-69.18405698489532 27.09140613871011, -69.7698860816666 26.73627309753345, -70.32497438813226 26.399775304092994 M-68.59822788812403 27.446539179886773 C-69.28787115460614 27.028473378951634, -69.97751442108824 26.610407578016492, -70.32497438813226 26.399775304092994 M-70.32497438813226 26.399775304092994 C-70.96679500333346 25.95206902689527, -71.60861561853467 25.504362749697545, -71.9811067104733 25.244529088840636 M-70.32497438813226 26.399775304092994 C-70.83448026493689 26.04436606058801, -71.34398614174152 25.688956817083024, -71.9811067104733 25.244529088840636 M-71.9811067104733 25.244529088840636 C-72.34957917802973 24.950682101428555, -72.71805164558614 24.656835114016474, -73.55981945219533 23.98554768862774 M-71.9811067104733 25.244529088840636 C-72.57547230813152 24.77053834144102, -73.16983790578973 24.296547594041407, -73.55981945219533 23.98554768862774 M-73.55981945219533 23.98554768862774 C-74.15761020505316 23.442649943558845, -74.75540095791101 22.89975219848995, -75.0546253440098 22.628004528078435 M-73.55981945219533 23.98554768862774 C-74.15421587733138 23.445732582186775, -74.74861230246745 22.90591747574581, -75.0546253440098 22.628004528078435 M-75.0546253440098 22.628004528078435 C-75.554981906919 22.1113452968369, -76.05533846982819 21.594686065595365, -76.45938190787244 21.177478043231478 M-75.0546253440098 22.628004528078435 C-75.43674231757014 22.23343738049042, -75.81885929113047 21.83887023290241, -76.45938190787244 21.177478043231478 M-76.45938190787244 21.177478043231478 C-76.74958539702536 20.836588511826136, -77.03978888617827 20.495698980420794, -77.76831669774293 19.639928758550113 M-76.45938190787244 21.177478043231478 C-76.92629141757135 20.629019565235403, -77.39320092727026 20.08056108723933, -77.76831669774293 19.639928758550113 M-77.76831669774293 19.639928758550113 C-78.10869576753115 19.18385181420508, -78.44907483731937 18.727774869860045, -78.9760510198041 18.021674793848355 M-77.76831669774293 19.639928758550113 C-78.01151442375122 19.314065961467627, -78.25471214975951 18.988203164385144, -78.9760510198041 18.021674793848355 M-78.9760510198041 18.021674793848355 C-79.21883960806154 17.64868632442041, -79.461628196319 17.275697854992462, -80.0776220346684 16.329365901781557 M-78.9760510198041 18.021674793848355 C-79.35962389893446 17.432403847764203, -79.74319677806481 16.84313290168005, -80.0776220346684 16.329365901781557 M-80.0776220346684 16.329365901781557 C-80.44976642895719 15.668585846015596, -80.82191082324599 15.007805790249636, -81.0685031507495 14.569956142586314 M-80.0776220346684 16.329365901781557 C-80.29281403597263 15.947270712912884, -80.50800603727686 15.56517552404421, -81.0685031507495 14.569956142586314 M-81.0685031507495 14.569956142586314 C-81.3028546470898 14.083320246116951, -81.5372061434301 13.59668434964759, -81.94462262499809 12.750675308355417 M-81.0685031507495 14.569956142586314 C-81.41301813551152 13.854563405288204, -81.75753312027352 13.139170667990095, -81.94462262499809 12.750675308355417 M-81.94462262499809 12.750675308355417 C-82.18226092704113 12.163704107885087, -82.41989922908418 11.576732907414758, -82.70238029456745 10.878999214271209 M-81.94462262499809 12.750675308355417 C-82.13611617234983 12.277682544120745, -82.32760971970157 11.804689779886072, -82.70238029456745 10.878999214271209 M-82.70238029456745 10.878999214271209 C-82.95137862817312 10.129055905947787, -83.20037696177877 9.379112597624363, -83.33866237065482 8.962618978877522 M-82.70238029456745 10.878999214271209 C-82.83321662187441 10.484941042360452, -82.96405294918138 10.090882870449693, -83.33866237065482 8.962618978877522 M-83.33866237065482 8.962618978877522 C-83.44717201904524 8.548824661185698, -83.55568166743568 8.135030343493876, -83.85085423372743 7.009409419623911 M-83.33866237065482 8.962618978877522 C-83.49054180276796 8.383436879267812, -83.64242123488111 7.8042547796581, -83.85085423372743 7.009409419623911 M-83.85085423372743 7.009409419623911 C-83.9297384135824 6.604355828246, -84.00862259343737 6.199302236868087, -84.23685117755518 5.027396693551461 M-83.85085423372743 7.009409419623911 C-83.93344698865353 6.585313079063325, -84.01603974357964 6.161216738502738, -84.23685117755518 5.027396693551461 M-84.23685117755518 5.027396693551461 C-84.31212068055805 4.443621291905691, -84.38739018356094 3.8598458902599204, -84.49506705789975 3.024725316091999 M-84.23685117755518 5.027396693551461 C-84.33233509834652 4.286842259326699, -84.42781901913786 3.5462878251019374, -84.49506705789975 3.024725316091999 M-84.49506705789975 3.024725316091999 C-84.52725465465178 2.52337751531846, -84.55944225140384 2.0220297145449213, -84.62444081032167 1.0096246935071416 M-84.49506705789975 3.024725316091999 C-84.53653906937357 2.378765261781962, -84.5780110808474 1.7328052074719245, -84.62444081032167 1.0096246935071416 M-84.62444081032167 1.0096246935071416 C-84.62444081032167 0.3440471979339008, -84.62444081032167 -0.32153029763933993, -84.62444081032167 -1.0096246935071262 M-84.62444081032167 1.0096246935071416 C-84.62444081032167 0.3938008528020408, -84.62444081032167 -0.22202298790305997, -84.62444081032167 -1.0096246935071262 M-84.62444081032167 -1.0096246935071262 C-84.5890864218995 -1.5602978307312945, -84.5537320334773 -2.1109709679554625, -84.49506705789975 -3.024725316091956 M-84.62444081032167 -1.0096246935071262 C-84.58195224065636 -1.6714184622005224, -84.53946367099104 -2.3332122308939183, -84.49506705789975 -3.024725316091956 M-84.49506705789975 -3.024725316091956 C-84.41270551712974 -3.6635051621783425, -84.33034397635973 -4.302285008264729, -84.23685117755518 -5.027396693551446 M-84.49506705789975 -3.024725316091956 C-84.42555371807616 -3.5638570528021174, -84.35604037825257 -4.102988789512279, -84.23685117755518 -5.027396693551446 M-84.23685117755518 -5.027396693551446 C-84.10104433972774 -5.724736103010057, -83.96523750190028 -6.422075512468669, -83.85085423372745 -7.009409419623896 M-84.23685117755518 -5.027396693551446 C-84.15412759873473 -5.452164787159855, -84.0714040199143 -5.876932880768265, -83.85085423372745 -7.009409419623896 M-83.85085423372745 -7.009409419623896 C-83.72537602887479 -7.487912197325064, -83.59989782402214 -7.9664149750262325, -83.33866237065482 -8.962618978877506 M-83.85085423372745 -7.009409419623896 C-83.67454395839832 -7.6817569128105365, -83.4982336830692 -8.354104405997177, -83.33866237065482 -8.962618978877506 M-83.33866237065482 -8.962618978877506 C-83.17122482304389 -9.466914194731308, -83.00378727543296 -9.971209410585107, -82.70238029456746 -10.878999214271168 M-83.33866237065482 -8.962618978877506 C-83.17272636011555 -9.462391804308892, -83.00679034957628 -9.962164629740279, -82.70238029456746 -10.878999214271168 M-82.70238029456746 -10.878999214271168 C-82.51647842671085 -11.33818042204511, -82.33057655885423 -11.79736162981905, -81.94462262499809 -12.750675308355401 M-82.70238029456746 -10.878999214271168 C-82.51710693065125 -11.336628005161003, -82.33183356673506 -11.794256796050837, -81.94462262499809 -12.750675308355401 M-81.94462262499809 -12.750675308355401 C-81.61826132934078 -13.428371521800885, -81.29190003368346 -14.10606773524637, -81.0685031507495 -14.5699561425863 M-81.94462262499809 -12.750675308355401 C-81.64388086212911 -13.375172013795718, -81.34313909926014 -13.999668719236034, -81.0685031507495 -14.5699561425863 M-81.0685031507495 -14.5699561425863 C-80.7427993435292 -15.148276233392778, -80.41709553630889 -15.726596324199255, -80.0776220346684 -16.329365901781546 M-81.0685031507495 -14.5699561425863 C-80.74641065787179 -15.141863979092266, -80.42431816499409 -15.713771815598232, -80.0776220346684 -16.329365901781546 M-80.0776220346684 -16.329365901781546 C-79.80851878432014 -16.742780758657137, -79.5394155339719 -17.15619561553273, -78.97605101980412 -18.021674793848344 M-80.0776220346684 -16.329365901781546 C-79.68036303759756 -16.939662400259547, -79.28310404052671 -17.549958898737547, -78.97605101980412 -18.021674793848344 M-78.97605101980412 -18.021674793848344 C-78.65835756682232 -18.447355078374994, -78.3406641138405 -18.873035362901643, -77.76831669774295 -19.639928758550102 M-78.97605101980412 -18.021674793848344 C-78.6003223114896 -18.5251170334003, -78.22459360317508 -19.028559272952254, -77.76831669774295 -19.639928758550102 M-77.76831669774295 -19.639928758550102 C-77.378102259015 -20.098296842110532, -76.98788782028703 -20.55666492567096, -76.45938190787246 -21.177478043231467 M-77.76831669774295 -19.639928758550102 C-77.31002797517013 -20.17826076945119, -76.85173925259731 -20.716592780352276, -76.45938190787246 -21.177478043231467 M-76.45938190787246 -21.177478043231467 C-76.10578429859291 -21.54259660571622, -75.75218668931336 -21.907715168200973, -75.05462534400984 -22.628004528078403 M-76.45938190787246 -21.177478043231467 C-76.00913545944827 -21.642394467150325, -75.55888901102408 -22.107310891069183, -75.05462534400984 -22.628004528078403 M-75.05462534400984 -22.628004528078403 C-74.6165348319209 -23.025866739917806, -74.17844431983195 -23.423728951757212, -73.55981945219536 -23.98554768862771 M-75.05462534400984 -22.628004528078403 C-74.53318252563032 -23.101565099109738, -74.0117397072508 -23.57512567014107, -73.55981945219536 -23.98554768862771 M-73.55981945219536 -23.98554768862771 C-73.19659643251532 -24.27520838105205, -72.83337341283529 -24.564869073476387, -71.98110671047331 -25.244529088840626 M-73.55981945219536 -23.98554768862771 C-73.20067439269833 -24.27195631632518, -72.8415293332013 -24.55836494402265, -71.98110671047331 -25.244529088840626 M-71.98110671047331 -25.244529088840626 C-71.39585090924243 -25.652778200463995, -70.81059510801154 -26.06102731208736, -70.3249743881323 -26.39977530409297 M-71.98110671047331 -25.244529088840626 C-71.63960801976188 -25.482743792240868, -71.29810932905045 -25.720958495641106, -70.3249743881323 -26.39977530409297 M-70.3249743881323 -26.39977530409297 C-69.7049018105472 -26.775666944575995, -69.0848292329621 -27.15155858505902, -68.59822788812404 -27.446539179886763 M-70.3249743881323 -26.39977530409297 C-69.91919161130073 -26.645763208052553, -69.51340883446916 -26.891751112012138, -68.59822788812404 -27.446539179886763 M-68.59822788812404 -27.446539179886763 C-68.20417346132821 -27.652117121942243, -67.81011903453238 -27.857695063997724, -66.80796278220309 -28.3805193389262 M-68.59822788812404 -27.446539179886763 C-68.08483067062363 -27.71437817941012, -67.5714334531232 -27.982217178933478, -66.80796278220309 -28.3805193389262 M-66.80796278220309 -28.3805193389262 C-66.19594974810383 -28.651439354400324, -65.58393671400457 -28.92235936987445, -64.9615356537003 -29.19787785639968 M-66.80796278220309 -28.3805193389262 C-66.42827702858476 -28.548594959075327, -66.04859127496643 -28.716670579224452, -64.9615356537003 -29.19787785639968 M-64.9615356537003 -29.19787785639968 C-64.48177838248961 -29.37443296703281, -64.00202111127894 -29.55098807766594, -63.06653386774408 -29.895256030836055 M-64.9615356537003 -29.19787785639968 C-64.47303306510446 -29.377651324671376, -63.98453047650861 -29.557424792943078, -63.06653386774408 -29.895256030836055 M-63.06653386774408 -29.895256030836055 C-62.662037234761996 -30.015308508258983, -62.257540601779915 -30.13536098568191, -61.13074439314951 -30.469788185729417 M-63.06653386774408 -29.895256030836055 C-62.30053175207643 -30.122601437939057, -61.534529636408784 -30.34994684504206, -61.13074439314951 -30.469788185729417 M-61.13074439314951 -30.469788185729417 C-60.498364484970885 -30.61412477310663, -59.86598457679226 -30.758461360483846, -59.16212180409324 -30.919113445218553 M-61.13074439314951 -30.469788185729417 C-60.693426968121 -30.569603034229278, -60.2561095430925 -30.66941788272914, -59.16212180409324 -30.919113445218553 M-59.16212180409324 -30.919113445218553 C-58.61009704231779 -31.008360527686445, -58.05807228054234 -31.097607610154334, -57.16875559306196 -31.24138543543225 M-59.16212180409324 -30.919113445218553 C-58.6432262839605 -31.003004448818757, -58.124330763827764 -31.08689545241896, -57.16875559306196 -31.24138543543225 M-57.16875559306196 -31.24138543543225 C-56.46464044334603 -31.309310577102984, -55.760525293630096 -31.37723571877372, -55.15883692939246 -31.435279871635593 M-57.16875559306196 -31.24138543543225 C-56.73324763824118 -31.283398364058865, -56.2977396834204 -31.325411292685477, -55.15883692939246 -31.435279871635593 M-55.15883692939246 -31.435279871635593 C-54.56765200215366 -31.454238021580487, -53.97646707491486 -31.473196171525384, -53.14062500000001 -31.5 M-55.15883692939246 -31.435279871635593 C-54.6556057090204 -31.451417517392777, -54.15237448864834 -31.46755516314996, -53.14062500000001 -31.5 M-53.14062500000001 -31.5 C-53.14062500000001 -31.5, -53.14062500000001 -31.5, -53.140625 -31.5 M-53.14062500000001 -31.5 C-53.14062500000001 -31.5, -53.14062500000001 -31.5, -53.140625 -31.5" stroke="#ccc" stroke-width="1.3" fill="none" stroke-dasharray="0 0" style=""/></g><g class="label" style="" transform="translate(-69.265625, -24)"><rect/><foreignObject width="138.53125" height="48"><div xmlns="http://www.w3.org/1999/xhtml" style="display: table-cell; white-space: nowrap; line-height: 1.5; max-width: 200px; text-align: center;"><span class="nodeLabel"><p>What's your<br />primary constraint?</p></span></div></foreignObject></g></g><g class="node default" id="my-svg-flowchart-C-1" data-look="classic" transform="translate(2395.78125, 216.8984375)"><polygon points="95.8984375,0 191.796875,-95.8984375 95.8984375,-191.796875 0,-95.8984375" class="label-container" transform="translate(-95.3984375, 95.8984375)"/><g class="label" style="" transform="translate(-68.8984375, -12)"><rect/><foreignObject width="137.796875" height="24"><div xmlns="http://www.w3.org/1999/xhtml" style="display: table-cell; white-space: nowrap; line-height: 1.5; max-width: 200px; text-align: center;"><span class="nodeLabel"><p>Primary constraint?</p></span></div></foreignObject></g></g><g class="node default" id="my-svg-flowchart-COMP-4" data-look="classic" transform="translate(511.46875, 491.8125)"><polygon points="86.046875,0 172.09375,-86.046875 86.046875,-172.09375 0,-86.046875" class="label-container" transform="translate(-85.546875, 86.046875)"/><g class="label" style="" transform="translate(-59.046875, -12)"><rect/><foreignObject width="118.09375" height="24"><div xmlns="http://www.w3.org/1999/xhtml" style="display: table-cell; white-space: nowrap; line-height: 1.5; max-width: 200px; text-align: center;"><span class="nodeLabel"><p>Regulation type?</p></span></div></foreignObject></g></g><g class="node default" id="my-svg-flowchart-LAT-6" data-look="classic" transform="translate(1481.625, 491.8125)"><polygon points="105.015625,0 210.03125,-105.015625 105.015625,-210.03125 0,-105.015625" class="label-container" transform="translate(-104.515625, 105.015625)"/><g class="label" style="" transform="translate(-78.015625, -12)"><rect/><foreignObject width="156.03125" height="24"><div xmlns="http://www.w3.org/1999/xhtml" style="display: table-cell; white-space: nowrap; line-height: 1.5; max-width: 200px; text-align: center;"><span class="nodeLabel"><p>Latency requirement?</p></span></div></foreignObject></g></g><g class="node default" id="my-svg-flowchart-COST-8" data-look="classic" transform="translate(2395.78125, 491.8125)"><polygon points="74.6171875,0 149.234375,-74.6171875 74.6171875,-149.234375 0,-74.6171875" class="label-container" transform="translate(-74.1171875, 74.6171875)"/><g class="label" style="" transform="translate(-47.6171875, -12)"><rect/><foreignObject width="95.234375" height="24"><div xmlns="http://www.w3.org/1999/xhtml" style="display: table-cell; white-space: nowrap; line-height: 1.5; max-width: 200px; text-align: center;"><span class="nodeLabel"><p>Budget level?</p></span></div></foreignObject></g></g><g class="node default" id="my-svg-flowchart-FLEX-10" data-look="classic" transform="translate(3223.5703125, 491.8125)"><polygon points="85.375,0 170.75,-85.375 85.375,-170.75 0,-85.375" class="label-container" transform="translate(-84.875, 85.375)"/><g class="label" style="" transform="translate(-58.375, -12)"><rect/><foreignObject width="116.75" height="24"><div xmlns="http://www.w3.org/1999/xhtml" style="display: table-cell; white-space: nowrap; line-height: 1.5; max-width: 200px; text-align: center;"><span class="nodeLabel"><p>What flexibility?</p></span></div></foreignObject></g></g><g class="node default" id="my-svg-flowchart-OPS-12" data-look="classic" transform="translate(3938.640625, 491.8125)"><polygon points="64.8828125,0 129.765625,-64.8828125 64.8828125,-129.765625 0,-64.8828125" class="label-container" transform="translate(-64.3828125, 64.8828125)"/><g class="label" style="" transform="translate(-37.8828125, -12)"><rect/><foreignObject width="75.765625" height="24"><div xmlns="http://www.w3.org/1999/xhtml" style="display: table-cell; white-space: nowrap; line-height: 1.5; max-width: 200px; text-align: center;"><span class="nodeLabel"><p>Team size?</p></span></div></foreignObject></g></g><g class="node default" id="my-svg-flowchart-FED-15" data-look="classic" transform="translate(106.578125, 733.828125)"><rect class="basic label-container" style="fill:#e8eaf6 !important" x="-98.578125" y="-51" width="197.15625" height="102"/><g class="label" style="" transform="translate(-68.578125, -36)"><rect/><foreignObject width="137.15625" height="72"><div xmlns="http://www.w3.org/1999/xhtml" style="display: table-cell; white-space: nowrap; line-height: 1.5; max-width: 200px; text-align: center;"><span class="nodeLabel"><p>AWS Bedrock Gov<br />or Azure Gov<br />Only viable options</p></span></div></foreignObject></g></g><g class="node default" id="my-svg-flowchart-EU-17" data-look="classic" transform="translate(366.03125, 733.828125)"><rect class="basic label-container" style="fill:#e8eaf6 !important" x="-110.875" y="-39" width="221.75" height="78"/><g class="label" style="" transform="translate(-80.875, -24)"><rect/><foreignObject width="161.75" height="48"><div xmlns="http://www.w3.org/1999/xhtml" style="display: table-cell; white-space: nowrap; line-height: 1.5; max-width: 200px; text-align: center;"><span class="nodeLabel"><p>Nebius Finland/France<br />Scaleway, Mistral</p></span></div></foreignObject></g></g><g class="node default" id="my-svg-flowchart-HEALTH-19" data-look="classic" transform="translate(656.90625, 733.828125)"><rect class="basic label-container" style="fill:#e8f5e9 !important" x="-130" y="-63" width="260" height="126"/><g class="label" style="" transform="translate(-100, -48)"><rect/><foreignObject width="200" height="96"><div xmlns="http://www.w3.org/1999/xhtml" style="display: table; white-space: break-spaces; line-height: 1.5; max-width: 200px; text-align: center; width: 200px;"><span class="nodeLabel"><p>Baseten zero-retention default<br />Fireworks, Together with BAA</p></span></div></foreignObject></g></g><g class="node default" id="my-svg-flowchart-FIN-21" data-look="classic" transform="translate(957.375, 733.828125)"><rect class="basic label-container" style="fill:#e8f5e9 !important" x="-120.46875" y="-39" width="240.9375" height="78"/><g class="label" style="" transform="translate(-90.46875, -24)"><rect/><foreignObject width="180.9375" height="48"><div xmlns="http://www.w3.org/1999/xhtml" style="display: table-cell; white-space: nowrap; line-height: 1.5; max-width: 200px; text-align: center;"><span class="nodeLabel"><p>Baseten Writer reference<br />or hyperscaler</p></span></div></foreignObject></g></g><g class="node default" id="my-svg-flowchart-GROQ-24" data-look="classic" transform="translate(1215.7578125, 733.828125)"><rect class="basic label-container" style="fill:#fff3e0 !important" x="-87.9140625" y="-39" width="175.828125" height="78"/><g class="label" style="" transform="translate(-57.9140625, -24)"><rect/><foreignObject width="115.828125" height="48"><div xmlns="http://www.w3.org/1999/xhtml" style="display: table-cell; white-space: nowrap; line-height: 1.5; max-width: 200px; text-align: center;"><span class="nodeLabel"><p>Groq / Cerebras<br />Custom silicon</p></span></div></foreignObject></g></g><g class="node default" id="my-svg-flowchart-FW_LAT-26" data-look="classic" transform="translate(1481.625, 733.828125)"><rect class="basic label-container" style="fill:#fff3e0 !important" x="-127.953125" y="-39" width="255.90625" height="78"/><g class="label" style="" transform="translate(-97.953125, -24)"><rect/><foreignObject width="195.90625" height="48"><div xmlns="http://www.w3.org/1999/xhtml" style="display: table-cell; white-space: nowrap; line-height: 1.5; max-width: 200px; text-align: center;"><span class="nodeLabel"><p>Fireworks<br />FireAttention + speculation</p></span></div></foreignObject></g></g><g class="node default" id="my-svg-flowchart-SPEC-28" data-look="classic" transform="translate(1785.828125, 733.828125)"><rect class="basic label-container" style="fill:#fff3e0 !important" x="-126.25" y="-39" width="252.5" height="78"/><g class="label" style="" transform="translate(-96.25, -24)"><rect/><foreignObject width="192.5" height="48"><div xmlns="http://www.w3.org/1999/xhtml" style="display: table-cell; white-space: nowrap; line-height: 1.5; max-width: 200px; text-align: center;"><span class="nodeLabel"><p>Together ATLAS<br />or Fireworks FireOptimizer</p></span></div></foreignObject></g></g><g class="node default" id="my-svg-flowchart-DI-31" data-look="classic" transform="translate(2092.078125, 733.828125)"><rect class="basic label-container" style="fill:#e3f2fd !important" x="-130" y="-51" width="260" height="102"/><g class="label" style="" transform="translate(-100, -36)"><rect/><foreignObject width="200" height="72"><div xmlns="http://www.w3.org/1999/xhtml" style="display: table; white-space: break-spaces; line-height: 1.5; max-width: 200px; text-align: center; width: 200px;"><span class="nodeLabel"><p>DeepInfra<br />10-30% below Fireworks/Together</p></span></div></foreignObject></g></g><g class="node default" id="my-svg-flowchart-CALC-33" data-look="classic" transform="translate(2395.78125, 733.828125)"><rect class="basic label-container" style="fill:#e3f2fd !important" x="-123.703125" y="-39" width="247.40625" height="78"/><g class="label" style="" transform="translate(-93.703125, -24)"><rect/><foreignObject width="187.40625" height="48"><div xmlns="http://www.w3.org/1999/xhtml" style="display: table-cell; white-space: nowrap; line-height: 1.5; max-width: 200px; text-align: center;"><span class="nodeLabel"><p>Run the LCPR calculator<br />with your actual workload</p></span></div></foreignObject></g></g><g class="node default" id="my-svg-flowchart-FW_LORA-35" data-look="classic" transform="translate(2674.9921875, 733.828125)"><rect class="basic label-container" style="fill:#e3f2fd !important" x="-105.5078125" y="-39" width="211.015625" height="78"/><g class="label" style="" transform="translate(-75.5078125, -24)"><rect/><foreignObject width="151.015625" height="48"><div xmlns="http://www.w3.org/1999/xhtml" style="display: table-cell; white-space: nowrap; line-height: 1.5; max-width: 200px; text-align: center;"><span class="nodeLabel"><p>Fireworks Multi-LoRA<br />$0.20/M for 8B base</p></span></div></foreignObject></g></g><g class="node default" id="my-svg-flowchart-TOG-38" data-look="classic" transform="translate(2951.046875, 733.828125)"><rect class="basic label-container" style="fill:#f3e5f5 !important" x="-120.546875" y="-39" width="241.09375" height="78"/><g class="label" style="" transform="translate(-90.546875, -24)"><rect/><foreignObject width="181.09375" height="48"><div xmlns="http://www.w3.org/1999/xhtml" style="display: table-cell; white-space: nowrap; line-height: 1.5; max-width: 200px; text-align: center;"><span class="nodeLabel"><p>Together AI<br />Widest serverless catalog</p></span></div></foreignObject></g></g><g class="node default" id="my-svg-flowchart-BAS-40" data-look="classic" transform="translate(3223.5703125, 733.828125)"><rect class="basic label-container" style="fill:#f3e5f5 !important" x="-101.9765625" y="-39" width="203.953125" height="78"/><g class="label" style="" transform="translate(-71.9765625, -24)"><rect/><foreignObject width="143.953125" height="48"><div xmlns="http://www.w3.org/1999/xhtml" style="display: table-cell; white-space: nowrap; line-height: 1.5; max-width: 200px; text-align: center;"><span class="nodeLabel"><p>Baseten Truss<br />Full runtime control</p></span></div></foreignObject></g></g><g class="node default" id="my-svg-flowchart-TOG_FT-42" data-look="classic" transform="translate(3489.59375, 733.828125)"><rect class="basic label-container" style="fill:#f3e5f5 !important" x="-114.046875" y="-39" width="228.09375" height="78"/><g class="label" style="" transform="translate(-84.046875, -24)"><rect/><foreignObject width="168.09375" height="48"><div xmlns="http://www.w3.org/1999/xhtml" style="display: table-cell; white-space: nowrap; line-height: 1.5; max-width: 200px; text-align: center;"><span class="nodeLabel"><p>Together or Fireworks<br />Customer owns weights</p></span></div></foreignObject></g></g><g class="node default" id="my-svg-flowchart-MANAGED-45" data-look="classic" transform="translate(3783.640625, 733.828125)"><rect class="basic label-container" style="fill:#fce4ec !important" x="-130" y="-51" width="260" height="102"/><g class="label" style="" transform="translate(-100, -36)"><rect/><foreignObject width="200" height="72"><div xmlns="http://www.w3.org/1999/xhtml" style="display: table; white-space: break-spaces; line-height: 1.5; max-width: 200px; text-align: center; width: 200px;"><span class="nodeLabel"><p>Managed: Baseten, Fireworks,<br />or Together dedicated</p></span></div></foreignObject></g></g><g class="node default" id="my-svg-flowchart-SELF-47" data-look="classic" transform="translate(4093.640625, 733.828125)"><rect class="basic label-container" style="fill:#fce4ec !important" x="-130" y="-51" width="260" height="102"/><g class="label" style="" transform="translate(-100, -36)"><rect/><foreignObject width="200" height="72"><div xmlns="http://www.w3.org/1999/xhtml" style="display: table; white-space: break-spaces; line-height: 1.5; max-width: 200px; text-align: center; width: 200px;"><span class="nodeLabel"><p>Neo-cloud + vLLM/SGLang<br />Lambda, CoreWeave, RunPod</p></span></div></foreignObject></g></g></g></g></g><defs><filter id="my-svg-drop-shadow" height="130%" width="130%"><feDropShadow dx="4" dy="4" stdDeviation="0" flood-opacity="0.06" flood-color="#FFFFFF"/></filter></defs><defs><filter id="my-svg-drop-shadow-small" height="150%" width="150%"><feDropShadow dx="2" dy="2" stdDeviation="0" flood-opacity="0.06" flood-color="#FFFFFF"/></filter></defs><linearGradient id="my-svg-gradient" gradientUnits="objectBoundingBox" x1="0%" y1="0%" x2="100%" y2="0%"><stop offset="0%" stop-color="#cccccc" stop-opacity="1"/><stop offset="100%" stop-color="hsl(180, 0%, 18.3529411765%)" stop-opacity="1"/></linearGradient></svg>